<?xml version="1.0" encoding="utf-8"?><svg xmlns="http://www.w3.org/2000/svg" xmlns:xlink="http://www.w3.org/1999/xlink"><symbol viewBox="0 0 20 20" id="_book" xmlns="http://www.w3.org/2000/svg"><path fill-rule="evenodd" clip-rule="evenodd" d="M3.89 2.5a.5.5 0 00-.5.5v9.603a.5.5 0 00.5.5c1.914 0 3.797.5 5.46 1.45l.398.228h.001a.5.5 0 00.502 0h.002l.398-.228a11.005 11.005 0 015.46-1.45.5.5 0 00.5-.5V3a.5.5 0 00-.5-.5 12 12 0 00-5.956 1.582L10 4.17l-.154-.088A12.006 12.006 0 003.889 2.5zm6.61 10.995V5.036l.15-.086a11.006 11.006 0 014.961-1.439v8.603a12.007 12.007 0 00-5.11 1.381zm-1-8.459l-.15-.086a11.006 11.006 0 00-4.96-1.439v8.603c1.784.074 3.53.546 5.11 1.381V5.036z"/><path d="M1.929 5.619a.5.5 0 10-1 0v9.206a.5.5 0 00.5.5h.148c2.863 0 5.678.73 8.18 2.12a.498.498 0 00.486 0 16.842 16.842 0 018.18-2.12h.149a.5.5 0 00.5-.5V5.62a.5.5 0 00-1 0v8.71A17.844 17.844 0 0010 16.439a17.843 17.843 0 00-8.071-2.11v-8.71z"/></symbol><symbol viewBox="0 0 14 14" id="_cross" xmlns="http://www.w3.org/2000/svg"><path fill-rule="evenodd" clip-rule="evenodd" d="M11.354 2.646a.5.5 0 010 .708L7.707 7l3.647 3.646a.5.5 0 01-.708.708L7 7.707l-3.646 3.647a.5.5 0 01-.708-.708L6.293 7 2.646 3.354a.5.5 0 11.708-.708L7 6.293l3.646-3.647a.5.5 0 01.708 0z"/></symbol><symbol viewBox="0 0 15 14" id="_down" xmlns="http://www.w3.org/2000/svg"><path fill-rule="evenodd" clip-rule="evenodd" d="M2.017 5.146a.5.5 0 01.707 0l4.647 4.647 4.646-4.647a.5.5 0 11.707.708l-5 5a.5.5 0 01-.707 0l-5-5a.5.5 0 010-.708z"/></symbol><symbol viewBox="0 0 24 24" id="return" xmlns="http://www.w3.org/2000/svg"><path fill-rule="evenodd" clip-rule="evenodd" d="M8.354 4.313a.5.5 0 010 .707l-6.147 6.146H23a.5.5 0 010 1H2.207l6.147 6.147a.5.5 0 11-.708.707l-7-7a.5.5 0 010-.707l7-7a.5.5 0 01.708 0z"/></symbol></svg>