<?xml version="1.0" encoding="utf-8"?><svg xmlns="http://www.w3.org/2000/svg" xmlns:xlink="http://www.w3.org/1999/xlink"><symbol viewBox="0 0 10 18" id="arrow-right-3" xmlns="http://www.w3.org/2000/svg"><path d="m1.5 1.893 6.996 7-6.996 7"/></symbol><symbol viewBox="0 0 226 241" id="modules-decor-1" xmlns="http://www.w3.org/2000/svg"><path fill-rule="evenodd" clip-rule="evenodd" d="M0 240.089c35.617-5.98 65.686-37.347 80.868-68.377a501.315 501.315 0 0 1 10.582-20.387 576.784 576.784 0 0 0 31.329-16.631 506.86 506.86 0 0 0 73.909-50.56c9.274-7.774 27.395-24.671 29.312-39.762V39.39c-.622-4.475-3.041-8.663-7.986-12.247-10.419-7.53-22.771-1.57-32.828 3.612a188.86 188.86 0 0 0-29.055 19.213c-31.04 24.323-55.869 56.519-75.353 90.666-10.365 5.218-21.434 10.726-32.883 11.845-26.129 2.583-29.686-25.28-28.548-44.728a385.764 385.764 0 0 1 4.84-42.308C40.6 68.207 58.64 61.11 72.146 50.998 91.416 36.507 109.153 18.404 125.143 0h-19.75a387.089 387.089 0 0 1-4.77 4.916c-9.029 9.3-18.4 18.436-28.115 27.086C62.25 41.139 50.243 50.059 36.14 51.63a33.586 33.586 0 0 1-9.318-.235A301.563 301.563 0 0 1 42.082 0H26.956a313.342 313.342 0 0 0-12.142 41.807l-.704 3.16C3.962 35.07 2.066 16.346 2.752 1.52c.024-.507.05-1.014.077-1.521H0v51.217a40.947 40.947 0 0 0 3.312 3.591 40.812 40.812 0 0 0 7.512 5.742c-4.226 20.73-7.53 42.58-5.707 62.948 2.005 22.085 13.814 42.796 38.336 43.519a65.394 65.394 0 0 0 26.02-5.544C59.507 180 49.106 197.588 30.652 210.589 21.804 216.783 10.984 222.745 0 225.315v14.774zm107.972-115.868c20.947-30.915 47.311-59.806 80.012-78.478a106.5 106.5 0 0 0 2.997-1.789l.004-.002c4.44-2.71 10.023-6.119 14.425-5.973 9.534.307 5.128 8.794 1.914 13.741-6.609 10.203-15.981 18.419-25.425 25.913a528.909 528.909 0 0 1-65.006 43.771 578.359 578.359 0 0 1-11.214 6.284c.53-.723.99-1.445 1.45-2.167l.001-.002c.276-.432.551-.865.842-1.298z"/></symbol><symbol viewBox="0 0 1282 622" id="modules-decor-2" xmlns="http://www.w3.org/2000/svg"><path fill-rule="evenodd" clip-rule="evenodd" d="M1080.2 224.878c19.75 42.296 68.19 56.233 110.58 62.847a584.285 584.285 0 0 0 90.96 6.688v14.815c-4.8.012-9.62-.025-14.44-.112a580.402 580.402 0 0 1-88.46-8.314c-26.53-4.67-53.47-12.199-75.79-27.706-19.23-13.339-35.18-32.712-41.4-55.56a74.823 74.823 0 0 1-2.52-22.139c-41.09 15.45-86.857 20.046-127.248-.392-40.821-20.681-63.912-64.771-68.844-108.974-3.083-27.67 4.477-62.763 14.072-89.718 1.036-2.909 3.81-4.813 6.898-4.813 5.261 0 8.867 5.324 7.135 10.292-11.888 34.084-18.063 76.25-7.667 110.114 13.844 45.193 50.162 77.812 98.063 81.548 27.801 2.13 54.501-4.185 79.721-14.833a141.637 141.637 0 0 1 12.49-33.628 351.87 351.87 0 0 1 44.95-66.976c16.63-19.71 35.37-39.009 58.42-51.19a90.307 90.307 0 0 1 33.99-10.648c8.89-.785 25.74-.411 32.04 7.062 6.8 7.996 4.03 21.447 0 29.891-5.28 11.077-14.2 20.13-22.74 28.807l-.05.053-1.01 1.03-1.05 1.067c-38.79 39.662-84.3 75.27-133.9 100.267-3.21 1.607-6.5 3.176-9.8 4.689a65.928 65.928 0 0 0 5.6 35.833zM1232.11 40.01c.51-3.993-2.75-7.218-6.69-8.014-44.17-8.908-85.9 41.669-108.96 72.811-13.8 18.664-30.06 41.661-37.87 65.799a430.326 430.326 0 0 0 46.71-28.023 533.468 533.468 0 0 0 60.96-48.163 548.25 548.25 0 0 0 28.36-28.023c.45-.476.92-.968 1.4-1.477l.02-.021c6.17-6.467 14.87-15.588 16.07-24.89zM625.1 70.223a7.3 7.3 0 0 0 2.952 1.14c.998.301 2.048.39 3.083.261a21.766 21.766 0 0 0 21.821-14.945c3.344-10.761-4.223-21.336-14.666-24.12-10.443-2.783-22.176 3.196-25.071 13.508-2.766 10.032 2.933 20.027 11.881 24.156zm9.229-23.26c7.38 1.626 3.924 10.986-2.297 9.977-6.894-2.018-4.989-11.564 2.297-9.976zM142.203 543.092c-10.163-2.728-22.176 3.194-25.071 13.582-2.784 9.939 2.933 19.934 11.881 24.081a6.93 6.93 0 0 0 2.933 1.121 7.242 7.242 0 0 0 3.102.28 21.779 21.779 0 0 0 21.821-14.946c3.344-10.779-4.241-21.335-14.666-24.118zm-6.277 24.38c-6.894-2.036-4.97-11.583 2.298-9.976 7.267 1.606 3.923 10.985-2.298 9.976zm701.797-18.963c-2.298-13.413 5.063-28.023 18.683-31.965 15.113-4.39 30.993 6.782 33.982 21.784 2.84 14.684-5.642 29.63-21.073 31.498a29.56 29.56 0 0 1-30.34-17.319 7.712 7.712 0 0 1-.822-1.868 7.213 7.213 0 0 1-.43-2.13zm21.821-17.299c-5.847 2.372-8.37 9.677-6.875 15.45h-.037c4.633 12.61 25.295 10.78 23.334-4.372-.972-7.342-8.949-14.217-16.422-11.078z"/><path fill-rule="evenodd" clip-rule="evenodd" d="M1201.58 198.947c-2.77 9.939 2.93 19.952 11.88 24.081.89.593 1.89.976 2.95 1.121 1 .317 2.06.413 3.1.28a21.763 21.763 0 0 0 21.8-14.945c3.35-10.78-4.22-21.336-14.66-24.119-10.44-2.784-22.18 3.194-25.07 13.582zm18.81 10.798c-6.89-2.018-4.99-11.564 2.3-9.976 7.28 1.588 3.92 10.985-2.3 9.976z"/><path d="M1243.01 544.046a106.265 106.265 0 0 0-45.1-13.34 106.353 106.353 0 0 0-46.44 7.417c-1.38-5.95-2.73-11.906-4.08-17.862v-.011l-.02-.058v-.025c-4.35-19.201-8.71-38.396-14.13-57.351-9.74-34.058-25.15-63.725-48.97-90.142-24.28-27.033-54.29-48.761-85.805-66.714-8.37-4.783-15.899 8.127-7.473 12.891 32.548 18.551 63.088 41.1 87.488 69.759a196.76 196.76 0 0 1 28.36 43.604c7.94 16.816 12.6 35.219 17.17 53.234.23.939.47 1.877.71 2.813 2.45 9.593 4.64 19.538 6.84 29.595l.01.006c1.95 8.919 3.93 17.927 6.13 26.856a106.335 106.335 0 0 0-35.5 31.589 106.23 106.23 0 0 0-18.17 43.906c0 .392 0 .785-.15 1.177h15.49c4.2-21.839 14.94-41.811 33.44-56.308a92.402 92.402 0 0 1 8.54-5.922c6.5 22.811 15.24 44.519 29.89 62.23h21.3a90.426 90.426 0 0 1-4.54-4.316c-18-18.588-26.89-40.652-33.18-64.827a91.531 91.531 0 0 1 67.12-1.532c23.93 8.856 65.8 41.101 51.04 70.675h8.61v-41.045c-9.34-15.413-24.77-28.509-38.58-36.299zm-583.861 18.121c4.895-8.537 12.741-18.476 23.764-17.878 10.256.541 15.73 9.621 16.963 18.794 2.634 19.037-2.952 40.26-11.023 58.27H672.32a124.25 124.25 0 0 0 8.743-22.419c2.84-10.219 6.128-23.54 4.129-34.188-3.027-16.104-18.271 14.983-20.14 19.616a152.692 152.692 0 0 0-9.341 37.028h-14.945a153.185 153.185 0 0 1 18.383-59.223zm-63.304-22.773c-19.784-12.181-45.809-.374-64.416 8.724a192.11 192.11 0 0 0-19.187 10.836 185.97 185.97 0 0 0-2.223-43.66c-3.904-21.97-13.077-46.538-30.246-61.651-19.561-17.281-43.922-13.227-65.556-2.261-20.812 10.518-40.13 24.455-57.915 39.419-36.113 30.378-66.004 67.686-91.393 107.311a671.92 671.92 0 0 0-14.218 23.278h17.375c20.775-34.506 44.557-67.256 72.861-96.008a349.902 349.902 0 0 1 47.658-40.839c1.031-.725 2.08-1.466 3.146-2.22l.002-.001c16.168-11.426 36.254-25.621 56.093-25.989 22.83-.43 35.814 23.446 42.353 42.166 7.323 20.998 8.631 43.361 6.837 65.387a237.222 237.222 0 0 1-.498 4.875l-.092.852-.064.588a201.126 201.126 0 0 0-19.037 17.038 208.312 208.312 0 0 0-27.089 34.114h18.103a184.535 184.535 0 0 1 24.474-28.379c-1.868 9.547-4.316 19.019-7.025 28.379h15.563c3.026-11.042 5.604-22.195 7.472-33.46a271.976 271.976 0 0 0 1.458-9.509 188.24 188.24 0 0 1 27.388-16.721c11.62-5.791 25.482-12.311 38.672-12.424 14.684-.112 21.036 11.957 24.418 24.493 2.667 9.763 4.43 19.813 6.186 29.822v.002l.002.01.001.002.001.009c.702 4.002 1.403 7.997 2.161 11.965.321 1.607.615 3.311.905 4.992v.002l.141.817h15.226c-1.644-8.644-3.294-17.288-4.951-25.931a534.088 534.088 0 0 1-1.193-6.63c-3.178-18.113-6.888-39.253-23.393-49.398zm621.495-100.381c-5.02-22.83 5.57-48.424 26.53-59.634a47.68 47.68 0 0 1 18.57-5.333c6.48-.492 13 .351 19.15 2.475v15.936a32.871 32.871 0 0 0-12.46-3.657c-4.36-.378-8.74.116-12.91 1.452-18.64 6.091-28.82 28.024-24.12 46.482 5.51 17.299 24.01 27.986 41.72 27.444 2.66-.077 5.29-.485 7.85-1.214v15.3c-25.56 4.428-55.66-11.396-63.97-37.551a8.961 8.961 0 0 1-.36-1.7zM9.803 497.507a8.27 8.27 0 0 0-7.212 1.345 7.923 7.923 0 0 0 3.737 13.62 7.696 7.696 0 0 0 3.437-14.946l.038-.019zm262.734 4.752a7.695 7.695 0 0 1-5.431 1.282l-.037.019a7.896 7.896 0 0 1-6.05-5.652 7.906 7.906 0 0 1 2.313-7.949 8.244 8.244 0 0 1 7.212-1.363 7.697 7.697 0 0 1 1.993 13.663zm736.423 80.644a8.254 8.254 0 0 0-7.21 1.346 7.917 7.917 0 0 0-2.274 3.651 7.916 7.916 0 0 0 2.194 7.989 7.89 7.89 0 0 0 3.82 1.979 7.699 7.699 0 0 0 8.57-5.898 7.707 7.707 0 0 0-5.13-9.048l.03-.019zM761.9 121.692a8.28 8.28 0 0 1 3.772.172l-.037.019a7.694 7.694 0 0 1 5.144 9.062 7.698 7.698 0 0 1-8.6 5.883 7.917 7.917 0 0 1-6.046-5.663 7.916 7.916 0 0 1 2.309-7.956 8.293 8.293 0 0 1 3.458-1.517zm261.38-70.802a7.676 7.676 0 0 0 5.44-1.265 7.7 7.7 0 0 0 3.16-4.619c.43-1.88.14-3.855-.81-5.533a7.683 7.683 0 0 0-4.34-3.529 8.29 8.29 0 0 0-7.23 1.346 7.959 7.959 0 0 0-2.28 3.651 8.062 8.062 0 0 0-.03 4.304 7.936 7.936 0 0 0 2.23 3.685 7.89 7.89 0 0 0 3.82 1.979l.04-.019z"/></symbol><symbol viewBox="0 0 34 34" id="star" xmlns="http://www.w3.org/2000/svg"><path d="M15.668 2.559c.393-.853 1.605-.853 1.998 0l3.398 7.368c.16.347.49.586.87.631l8.057.956c.932.11 1.306 1.262.617 1.9l-5.957 5.508a1.1 1.1 0 0 0-.332 1.022l1.581 7.959c.183.92-.797 1.633-1.616 1.174l-7.08-3.963a1.1 1.1 0 0 0-1.075 0l-7.08 3.963c-.819.458-1.799-.254-1.616-1.174l1.581-7.959a1.1 1.1 0 0 0-.332-1.022l-5.957-5.509c-.689-.637-.315-1.789.618-1.9l8.057-.955a1.1 1.1 0 0 0 .87-.631l3.398-7.368z"/></symbol></svg>