<svg width="24" height="24" viewBox="0 0 24 24" fill="none" xmlns="http://www.w3.org/2000/svg">
<g clip-path="url(#clip0_118_4564)">
<path d="M12 24C18.6274 24 24 18.6274 24 12C24 5.37258 18.6274 0 12 0C5.37258 0 0 5.37258 0 12C0 18.6274 5.37258 24 12 24Z" fill="#F0F0F0"/>
<path d="M12.0002 24.0004C16.7577 24.0004 20.8685 21.2317 22.8095 17.2178H1.19092C3.13192 21.2317 7.24267 24.0004 12.0002 24.0004Z" fill="#338AF3"/>
<path d="M12.0002 0C7.24267 0 3.13192 2.76867 1.19092 6.78263H22.8094C20.8685 2.76867 16.7577 0 12.0002 0Z" fill="#338AF3"/>
<path d="M7.38504 7.82617L7.77354 9.02191H9.03077L8.01368 9.76084L8.40223 10.9566L7.38504 10.2176L6.36785 10.9566L6.7564 9.76084L5.73926 9.02191H6.99649L7.38504 7.82617Z" fill="#338AF3"/>
<path d="M7.38504 13.0439L7.77354 14.2397H9.03077L8.01368 14.9787L8.40223 16.1744L7.38504 15.4354L6.36785 16.1744L6.7564 14.9787L5.73926 14.2397H6.99649L7.38504 13.0439Z" fill="#338AF3"/>
<path d="M16.6155 7.82617L17.0041 9.02191H18.2613L17.2441 9.76084L17.6327 10.9566L16.6155 10.2176L15.5983 10.9566L15.9869 9.76084L14.9697 9.02191H16.227L16.6155 7.82617Z" fill="#338AF3"/>
<path d="M16.6155 13.0439L17.0041 14.2397H18.2613L17.2441 14.9787L17.6327 16.1744L16.6155 15.4354L15.5983 16.1744L15.9869 14.9787L14.9697 14.2397H16.227L16.6155 13.0439Z" fill="#338AF3"/>
<path d="M12.0003 10.4346L12.3888 11.6304H13.6461L12.6289 12.3693L13.0175 13.565L12.0003 12.826L10.9831 13.565L11.3716 12.3693L10.3545 11.6304H11.6117L12.0003 10.4346Z" fill="#338AF3"/>
</g>
<defs>
<clipPath id="clip0_118_4564">
<rect width="24" height="24" fill="white"/>
</clipPath>
</defs>
</svg>
