<svg width="37" height="30" viewBox="0 0 37 30" fill="none" xmlns="http://www.w3.org/2000/svg">
<path d="M13.36 21.4446L23.8094 19.8008L22.1862 15.6239L12.8004 17.0707V15.8754L32.1231 12.883C32.8399 12.7714 33.4949 12.6072 34.0456 12.3902C34.5913 12.1705 35.0523 11.906 35.4247 11.6069C35.7982 11.3083 36.0842 10.978 36.2828 10.6254C36.4791 10.2738 36.6032 9.525 36.6032 9.525C36.6032 9.525 36.6032 16.2342 36.6032 16.4453C36.6032 16.6545 36.5374 17.1446 36.2888 17.5738C36.0953 17.9278 35.8029 18.2481 35.438 18.5491C35.071 18.8514 34.6183 19.1203 34.0854 19.3402C33.5505 19.5595 32.6457 19.7881 31.9242 19.8865V19.8841L23.8119 21.1545V19.8431L13.36 21.4446Z" fill="#ACACAE"/>
<path d="M25.5587 0.236897L27.0479 0.068159C27.9037 -0.0553799 28.6719 0.0171534 29.3844 0.068159C30.0971 0.121755 30.7387 0.260033 31.3036 0.480134C31.8719 0.701843 32.3622 1.00475 32.7757 1.38903C33.1897 1.77287 33.5265 2.23969 33.7787 2.77958L36.3515 8.30668C36.5727 8.78475 36.6501 9.27551 36.5823 9.74877C36.5158 10.225 36.3022 10.6833 35.9507 11.1015C35.5943 11.5195 35.0992 11.8973 34.4635 12.2038C33.8284 12.5117 33.205 12.7249 32.3773 12.8508L12.8007 15.8718L9.93365 7.42359L17.5298 6.25672L19.2759 10.8923L28.7637 9.43559L26.3675 3.76915L9.56857 6.34837L8.38881 2.87391L25.5587 0.236897Z" fill="#1F1F1F" fill-opacity="0.8"/>
<path d="M8.15659 7.64628L11.3369 17.2972L22.1864 15.6243L23.8096 19.8011L4.54497 22.8301L0.461969 8.82575L8.15659 7.64628Z" fill="#1F1F1F" fill-opacity="0.8"/>
<path d="M11.9626 13.4035L9.93322 7.42376V13.0376L9.56814 11.9307V6.34862L26.367 3.76958L26.3547 9.80548L19.2755 10.8926L17.5294 6.25697L9.93322 7.42376L11.9626 13.4035Z" fill="#ACACAE"/>
<path d="M4.54456 29.9987V22.7938L23.8116 19.8428L23.8092 27.0491L4.54456 29.9987Z" fill="#ACACAE"/>
<path d="M8.4102 23.5208L10.1472 23.2517C11.015 23.1169 11.7535 23.4404 11.7535 25.3011V25.5542C11.7535 26.6959 11.5244 28.127 10.2045 28.3312L8.4102 28.6082V23.5208ZM9.39299 27.7034L10.0107 27.6076C10.6488 27.5095 10.7493 26.6895 10.7493 25.6959C10.7493 24.4479 10.5777 23.9392 10.0391 24.0226L9.39308 24.1229L9.39299 27.7034Z" fill="#1F1F1F" fill-opacity="0.8"/>
<path d="M13.583 22.7199L14.9035 22.515L16.0518 27.4259L14.9893 27.5912L14.7451 26.3045L13.6331 26.4762L13.3249 27.8486L12.2704 28.0123L13.583 22.7199ZM14.6232 25.5683L14.2291 23.261L13.7553 25.7024L14.6232 25.5683Z" fill="#1F1F1F" fill-opacity="0.8"/>
<path d="M18.2457 27.0865L17.2629 27.2389V22.925L16.0434 23.1141V22.3386L19.4653 21.8092V22.5846L18.2457 22.7739V27.0865Z" fill="#1F1F1F" fill-opacity="0.8"/>
<path d="M20.6627 21.6235L21.9834 21.4194L23.1316 26.3309L22.0692 26.4946L21.825 25.2086L20.7131 25.3803L20.4049 26.7528L19.3502 26.9165L20.6627 21.6235ZM21.7029 24.4738L21.3089 22.1664L20.835 24.6073L21.7029 24.4738Z" fill="#1F1F1F" fill-opacity="0.8"/>
<path d="M9.56687 11.9251L8.38881 8.35103V2.87379L9.56857 6.34824L9.56687 11.9251Z" fill="#7B7B7B"/>
<path d="M26.3548 9.80548L26.367 3.76958L28.7559 9.43629L26.3548 9.80548Z" fill="#7B7B7B"/>
<path d="M11.3368 17.2968L9.93346 13.0374V7.42355L12.8004 15.8718V17.0708L11.3368 17.2968Z" fill="#7B7B7B"/>
<path d="M4.54497 29.9991L0.461969 15.7521V8.82557L4.54497 22.83V29.9991Z" fill="#7B7B7B"/>
<path d="M24.4685 26.9479V21.8601L25.4525 21.7063V26.0202L27.2377 25.7447V26.5188L24.4685 26.9479Z" fill="#1F1F1F" fill-opacity="0.8"/>
<path d="M27.8324 26.4266V21.3374L28.8156 21.1849V26.2749L27.8324 26.4266Z" fill="#1F1F1F" fill-opacity="0.8"/>
<path d="M29.6777 26.14V21.0525L30.7381 20.8881L32.1735 24.3657L32.1799 24.3634C32.0731 23.8114 32.0588 23.064 32.0588 22.4887V20.6836L32.9777 20.5402V25.6307L31.9159 25.7957L30.4799 22.3219L30.4742 22.3243C30.5805 22.7992 30.5951 23.6785 30.5951 24.1946V25.9975L29.6777 26.14Z" fill="#1F1F1F" fill-opacity="0.8"/>
<path d="M33.8382 25.4968V20.4093L36.6072 19.9801V20.7542L34.8214 21.0317V22.2162L36.4494 21.9649V22.7384L34.8214 22.9897V24.5689L36.6072 24.294V25.0687L33.8382 25.4968Z" fill="#1F1F1F" fill-opacity="0.8"/>
</svg>
