<svg width="170" height="28" viewBox="0 0 170 28" fill="none" xmlns="http://www.w3.org/2000/svg">
<path d="M147.5 15.0209C151.081 13.7686 152.044 8.72309 149.701 5.93901C148.787 4.85229 147.183 4.13299 145.475 4.13299H136.122V0H108.796V4.13299H93.9679V6.28573H100.692V23.5887H103.191V6.284H109.915V3.89839L111.036 4.735V2.32524H133.968V4.64875L134.83 3.94842V23.7595L133.968 23.2437V25.224H111.036V8.00551H108.796V27.375H136.122V23.587H137.416V15.4953H144.7L149.011 23.587H151.812L147.35 15.0675L147.5 15.0192V15.0209ZM145.132 13.258H137.416V6.28573H145.132C149.594 6.28573 149.413 13.258 145.132 13.258Z" fill="#1F1F1F" fill-opacity="0.8"/>
<path d="M92.6741 4.13298H89.4846L79.0538 15.1175V4.13298H76.6406V23.5887H79.0538V18.0361L83.5887 13.6771L90.0452 23.5887H92.9328L85.3448 11.8383L92.6741 4.13298Z" fill="#1F1F1F" fill-opacity="0.8"/>
<path d="M70.2616 8.39446C70.5358 8.78603 70.9947 9.64333 70.9947 9.64333H73.5373C71.902 5.50172 68.183 3.3369 63.7482 3.61289C57.7695 3.98548 53.4709 10.1022 54.5731 15.8808C56.1584 24.1881 66.239 27.3293 71.7157 21.3247C72.3005 20.683 72.7714 19.9447 73.144 19.1599L73.5355 18.3371H70.993C70.993 18.3371 70.7204 18.977 70.2116 19.7102C67.8139 23.1652 62.6528 23.148 59.6152 20.5744C56.0324 17.5402 55.7237 11.4304 58.9631 8.04775C62.0301 4.84796 67.5776 4.56679 70.2599 8.39446H70.2616Z" fill="#1F1F1F" fill-opacity="0.8"/>
<path d="M0.6064 23.5887H3.1921V14.8932H13.2779V12.7405H3.1921V6.284H14.3991V4.13298H0.6064V23.5887Z" fill="#1F1F1F" fill-opacity="0.8"/>
<path d="M166.554 4.13298L160.649 13.2908L154.831 4.13298H151.814C151.814 4.13298 158.45 14.086 159.4 15.5401V23.5887H161.9V15.5401L169.486 4.13298H166.555H166.554Z" fill="#1F1F1F" fill-opacity="0.8"/>
<path d="M20.6918 4.13298H18.1061V23.5887H30.6068V21.3497H20.6918V4.13298Z" fill="#1F1F1F" fill-opacity="0.8"/>
<path d="M48.7655 6.40104C44.0322 2.09038 36.2699 3.253 33.0908 8.80735C28.6801 16.5162 35.2505 25.9586 44.0339 24.0404C52.1705 22.2637 54.9667 12.0485 48.7637 6.40104H48.7655ZM48.6775 18.3929C48.662 18.4188 48.5774 18.4291 48.5378 18.4843C43.5889 25.6843 32.6872 21.2581 33.9775 12.6212C34.3604 10.051 36.3562 7.6154 38.7366 6.61148C46.0297 3.53589 52.9209 11.7708 48.6775 18.3929Z" fill="#1F1F1F" fill-opacity="0.8"/>
</svg>
