<svg width="115" height="55" viewBox="0 0 115 55" fill="none" xmlns="http://www.w3.org/2000/svg">
<path d="M35.4958 36.0452H42.7233V38.4068H39.2851V54.9999H35.4958V36.0452Z" fill="#1F1F1F" fill-opacity="0.8"/>
<path d="M47.0084 47.8841L47.6578 38.4068H47.8754L48.5248 47.8841H47.0084ZM42.8121 54.9999H46.5221L46.8733 49.966H48.66L49.0126 54.9999H52.7212L50.7449 36.0452H44.7883L42.8121 54.9999Z" fill="#1F1F1F" fill-opacity="0.8"/>
<path d="M58.1479 48.3657V51.9392C58.1479 52.4208 58.5208 52.5606 58.7383 52.5606C59.0956 52.5606 59.3442 52.2654 59.3442 51.9392V47.5268C59.3442 46.9364 59.2355 46.2838 57.8217 46.2838H56.2836V44.2019H57.8838C58.9558 44.2019 59.3442 43.9533 59.3442 42.7881V39.0282C59.3442 38.702 59.0956 38.4068 58.7383 38.4068C58.5208 38.4068 58.1479 38.5311 58.1479 39.0282V42.12H54.3571V39.4322C54.3571 38.1116 54.5124 36.0452 57.1691 36.0452H60.3075C62.9642 36.0452 63.1351 38.1116 63.1351 39.4322V42.4618C63.1351 44.5282 61.6902 45.0875 60.5561 45.0409V45.2274C63.104 45.1652 63.1351 47.1228 63.1351 47.7909V51.6129C63.1351 52.9491 62.9642 54.9999 60.3075 54.9999H57.1691C54.5124 54.9999 54.3571 52.9491 54.3571 51.6129V48.3657H58.1479Z" fill="#1F1F1F" fill-opacity="0.8"/>
<path d="M65.6212 36.0452H74.3993V54.9999H70.6084V38.4068H69.4121V54.9999H65.6212V36.0452Z" fill="#1F1F1F" fill-opacity="0.8"/>
<path d="M80.676 46.4703V38.4068H81.1732C81.5771 38.4068 81.8723 38.7486 81.8723 39.3545V45.5225C81.8723 46.1285 81.5771 46.4703 81.1732 46.4703H80.676ZM76.8851 54.9999H80.676V48.5522H82.8511C85.4923 48.5522 85.6632 46.5014 85.6632 45.1652V39.4322C85.6632 38.1116 85.4923 36.0452 82.8511 36.0452H76.8851V54.9999Z" fill="#1F1F1F" fill-opacity="0.8"/>
<path d="M93.1366 51.9392C93.1366 52.2654 92.888 52.5606 92.5307 52.5606C92.3132 52.5606 91.9403 52.4208 91.9403 51.9392V39.0282C91.9403 38.5311 92.3132 38.4068 92.5307 38.4068C92.888 38.4068 93.1366 38.702 93.1366 39.0282V51.9392ZM88.1494 51.6129C88.1494 52.9491 88.3203 54.9999 90.9615 54.9999H94.1154C96.7565 54.9999 96.9274 52.9491 96.9274 51.6129V39.4322C96.9274 38.1116 96.7565 36.0452 94.1154 36.0452H90.9615C88.3203 36.0452 88.1494 38.1116 88.1494 39.4322V51.6129Z" fill="#1F1F1F" fill-opacity="0.8"/>
<path d="M109.263 36.0452H114.204V54.9999H110.413V43.1144H110.273L108.316 54.9999H105.286L103.344 43.1144H103.204V54.9999H99.4133V36.0452H104.338L106.809 49.3756L109.263 36.0452Z" fill="#1F1F1F" fill-opacity="0.8"/>
<path d="M30.5826 10.1314C29.4221 5.05089 26.5137 0.918162 26.1128 0.250088C25.4789 1.19782 23.1594 4.84892 21.9801 8.88844C20.6922 13.4096 20.5026 17.418 20.947 21.3488C21.3882 25.2951 23.0553 29.3501 23.0553 29.3501C23.9408 31.4631 25.2676 33.747 26.1315 34.8656C27.3977 33.2188 30.3076 28.3092 31.215 21.9081C31.7199 18.3347 31.7416 15.2118 30.5826 10.1314ZM26.1128 33.5916C25.5426 32.5196 24.6571 30.4843 24.5732 27.3149C24.5514 24.2697 25.7741 21.644 26.1315 21.1002C26.45 21.644 27.5033 23.9279 27.6292 27.0507C27.7146 30.0959 26.7016 32.5041 26.1128 33.5916ZM30.2455 18.7542C30.202 20.6963 29.9705 22.7471 29.6753 23.9745C29.7809 21.8615 29.5277 18.894 29.043 16.5635C28.5582 14.2486 27.1864 10.3644 26.0911 8.5777C25.0797 10.2867 23.8336 13.6426 23.1811 16.548C22.5255 19.4533 22.5068 22.9801 22.5068 24.0366C22.3328 23.151 21.8978 19.966 22.0205 16.781C22.1231 14.1553 22.7383 11.4364 23.0755 10.1935C24.3619 6.04525 25.8176 3.38848 26.0911 2.96899C26.3645 3.38848 28.1978 6.6667 29.1486 10.1003C30.0948 13.5339 30.2859 16.8276 30.2455 18.7542Z" fill="#1F1F1F" fill-opacity="0.8"/>
<path d="M28.081 36.0451H19.2579V41.9646C19.2657 41.9646 19.2719 41.949 19.2797 41.949C21.3585 39.8671 24.7298 39.8671 26.8102 41.949C28.8889 44.0154 28.8889 47.3868 26.8102 49.4687C26.8008 49.4843 26.7915 49.4843 26.7822 49.4998C26.7713 49.4998 26.7604 49.5154 26.7511 49.5309C24.677 51.5817 21.9675 52.6071 19.2579 52.6071C16.536 52.6071 13.814 51.5817 11.7383 49.4998C8.07798 45.8487 7.64452 40.1778 10.4348 36.0451C10.8108 35.4858 11.2443 34.9575 11.7383 34.4604C13.814 32.3785 16.536 31.3531 19.2579 31.3531V17.1215C8.79887 17.1215 0.320679 25.589 0.320679 36.0451C0.320679 46.5013 8.79887 54.9842 19.2579 54.9842C24.7112 54.9842 29.6238 52.6693 33.0791 48.9871V36.0451H28.081Z" fill="#1F1F1F" fill-opacity="0.8"/>
</svg>
