<svg width="223" height="28" viewBox="0 0 223 28" fill="none" xmlns="http://www.w3.org/2000/svg">
<path d="M15.2248 27.3745H0.497489V21.6154L15.2248 11.3063V27.3745ZM17.2219 5.0338L27.4864 12.2256V0.385786H0.486328V16.7397L17.2219 5.0338ZM19.2168 11.3063V27.3723H27.4931V17.1079L19.2168 11.3063Z" fill="#1F1F1F" fill-opacity="0.8"/>
<path d="M216.494 -6.58035e-05H209.365V2.85167H216.494V-6.58035e-05Z" fill="#1F1F1F" fill-opacity="0.8"/>
<path d="M47.6294 9.39812V24.2214H43.3562V5.52662H57.7779V9.39812H47.6294Z" fill="#1F1F1F" fill-opacity="0.8"/>
<path d="M59.5787 23.6323C60.6476 21.711 61.1831 18.7231 61.1831 14.633V5.52662H76.9391V24.2214H72.6615V9.39812H65.454V14.2336C65.454 19.0132 64.9475 22.3247 63.9322 24.2214H59.5787V23.6323Z" fill="#1F1F1F" fill-opacity="0.8"/>
<path d="M87.0588 5.52662H93.1907L100.554 24.2214H95.8684L94.4269 20.3476H85.8271L84.3856 24.2214H79.713L87.0588 5.52662ZM92.9854 16.4761L90.1292 8.83804L87.2708 16.4761H92.9854Z" fill="#1F1F1F" fill-opacity="0.8"/>
<path d="M103.332 5.52662H112.945C116.578 5.52662 118.954 7.42331 118.954 10.3331C118.954 12.3636 117.941 13.7783 115.884 14.6062C118.234 15.2756 119.622 16.7974 119.622 19.0132C119.622 22.3247 117.138 24.2214 113.079 24.2214H103.332V5.52662ZM112.813 12.7363C114.121 12.7363 114.822 12.0959 114.822 11.0025C114.822 10.0407 114.101 9.39812 112.813 9.39812H107.605V12.7452L112.813 12.7363ZM113.347 20.3476C114.654 20.3476 115.482 19.6268 115.482 18.4799C115.482 17.333 114.654 16.61 113.347 16.61H107.605V20.3476H113.347Z" fill="#1F1F1F" fill-opacity="0.8"/>
<path d="M132.079 20.6159C135.257 20.6159 137.151 18.5853 137.767 15.4613L141.692 17.0367C140.597 21.6312 137.178 24.4874 132.053 24.4874C126.097 24.4874 122.25 20.3749 122.25 14.8745C122.145 9.50572 126.577 5.15448 132.053 5.25936C136.993 5.25936 140.117 7.9839 140.918 11.4827L136.993 13.2411C136.457 10.6504 134.563 9.12861 131.972 9.12861C128.98 9.12861 126.523 11.3979 126.523 14.87C126.523 18.4001 129.087 20.6159 132.079 20.6159Z" fill="#1F1F1F" fill-opacity="0.8"/>
<path d="M160.004 9.39812H153.595V24.2214H149.322V9.39812H142.913V5.52662H160.004V9.39812Z" fill="#1F1F1F" fill-opacity="0.8"/>
<path d="M167.26 24.2214H162.987V5.52662H171.933C176.099 5.52662 178.21 8.22441 178.21 11.3751C178.21 14.4188 176.045 17.2772 171.933 17.2772H167.26V24.2214ZM171.667 13.4057C173.055 13.4057 173.936 12.685 173.936 11.3974C173.936 10.1099 173.055 9.38918 171.667 9.38918H167.26V13.4057H171.667Z" fill="#1F1F1F" fill-opacity="0.8"/>
<path d="M200.64 14.8744C200.747 20.0825 196.125 24.6213 190.759 24.4874C185.39 24.6213 180.771 20.0825 180.878 14.8744C180.771 9.66631 185.39 5.15442 190.759 5.2593C196.125 5.15442 200.744 9.67078 200.64 14.8744ZM196.366 14.8744C196.366 11.4559 193.883 9.26689 190.759 9.26689C187.635 9.26689 185.151 11.4559 185.151 14.8744C185.151 18.2929 187.635 20.4819 190.759 20.4819C193.883 20.4819 196.366 18.2929 196.366 14.8744Z" fill="#1F1F1F" fill-opacity="0.8"/>
<path d="M211.141 24.2214H203.824V5.52662H208.108V21.3696L214.945 5.52662H222.262V24.2214H217.989V8.37837L211.141 24.2214Z" fill="#1F1F1F" fill-opacity="0.8"/>
</svg>
