<svg width="31" height="30" viewBox="0 0 31 30" fill="none" xmlns="http://www.w3.org/2000/svg">
<path d="M30.6064 0V29.999H0.607422V0H30.6064ZM25.4502 21.8574C23.414 21.8575 22.2539 22.6501 22.2539 24.8447C22.2539 27.0393 23.414 27.8154 25.4502 27.8154C27.2685 27.8153 28.2874 27.2726 28.4961 25.9131H27.3193C27.1279 26.7057 26.5096 26.9062 25.4502 26.9062C24.2073 26.9062 23.4317 26.4551 23.4316 25.1201V24.5361C23.4317 23.176 24.2233 22.7667 25.4502 22.7666C26.5513 22.7667 27.1612 23.0008 27.3115 23.8271H28.4873C28.3204 22.4099 27.2858 21.8575 25.4502 21.8574ZM2.91992 21.957V27.7148H3.98828V22.9336L5.79883 27.7148H7.05957L8.87891 22.9092V27.7148H10.0391V21.957H8.27734L6.49805 26.6719L4.73926 21.957H2.91992ZM11.0078 21.957V27.7148H12.1738V22.9092H15.5537V21.957H11.0078ZM16.1631 21.957V22.9092H18.5186V27.7148H19.6836V22.9092H22.0381V21.957H16.1631Z" fill="#1F1F1F" fill-opacity="0.8"/>
</svg>
