<svg width="31" height="30" viewBox="0 0 31 30" fill="none" xmlns="http://www.w3.org/2000/svg">
<path opacity="0.4" d="M30.6846 0H0.685547V29.9991H30.6846V0Z" fill="#1F1F1F" fill-opacity="0.8"/>
<path d="M9.81152 2.30765L7.60674 6.88653L5.40196 2.30765H2.99611V9.22889H4.68232V4.27607L6.83771 8.45986H8.37577L10.5312 4.27607V9.22889H12.2209V2.30765H9.81152Z" fill="#1F1F1F" fill-opacity="0.8"/>
<path d="M20.673 2.30768V3.68699H23.6856L23.6786 9.22892H25.3648L25.3718 3.68699H28.388V2.30768H20.673Z" fill="#1F1F1F" fill-opacity="0.8"/>
<path d="M26.6985 25.382C26.6562 25.6571 26.5468 25.8864 26.3669 26.0558C26.1976 26.218 25.9718 26.3309 25.6896 26.3979C25.4109 26.4614 25.0053 26.5002 24.5714 26.5002C24.1375 26.5002 23.7283 26.4438 23.3931 26.3274C23.0686 26.218 22.8111 26.024 22.6312 25.7524C22.4477 25.4808 22.356 25.0857 22.356 24.5847V23.8757C22.356 23.3712 22.4477 22.9797 22.6312 22.708C22.8111 22.4364 23.0686 22.2459 23.3931 22.133C23.7283 22.0201 24.1233 21.9602 24.5714 21.9602C25.0194 21.9602 25.4109 21.999 25.6896 22.0625C25.9718 22.126 26.1976 22.2424 26.3669 22.4047C26.5433 22.5775 26.6562 22.8033 26.6985 23.0784H28.3883C28.3424 22.507 28.1484 22.0201 27.8097 21.6321C27.4993 21.2758 27.0725 21.0148 26.5398 20.856C26.0212 20.7008 25.3439 20.6197 24.5749 20.6197C23.7671 20.6197 23.0651 20.7361 22.4865 20.9654C21.9009 21.1982 21.4494 21.5862 21.1354 22.1189C20.8356 22.6304 20.6804 23.3113 20.6698 24.1473V24.2249L20.7615 24.2284L20.6698 24.232V24.3096C20.6804 25.1456 20.8356 25.8265 21.1354 26.338C21.4459 26.8707 21.9009 27.2587 22.4865 27.4915C23.0615 27.7208 23.7635 27.8372 24.5749 27.8372C25.3827 27.8372 26.0247 27.7561 26.5398 27.6009C27.0725 27.4421 27.4993 27.1811 27.8097 26.8248C28.1484 26.4368 28.3424 25.9499 28.3883 25.3785L26.6985 25.382Z" fill="#1F1F1F" fill-opacity="0.8"/>
</svg>
