<svg width="101" height="22" viewBox="0 0 101 22" fill="none" xmlns="http://www.w3.org/2000/svg">
<path d="M61.4702 -4.86374e-05C53.0018 -4.86374e-05 46.1389 4.89634 46.1389 10.9433C46.1389 16.9902 53.0018 21.8866 61.4702 21.8866C69.9385 21.8866 76.8015 16.9902 76.8015 10.9433C76.8015 4.89634 69.9385 -4.86374e-05 61.4702 -4.86374e-05ZM61.4702 16.7895C55.6239 16.7895 51.2493 13.7125 51.2493 10.9566C51.2493 8.20075 55.6239 5.12377 61.4702 5.12377C67.3164 5.12377 71.6911 8.20075 71.6911 10.9566C71.6911 13.7125 67.3298 16.7895 61.4702 16.7895Z" fill="#1F1F1F" fill-opacity="0.8"/>
<path d="M11.1819 -0.000117302C5.13494 -0.000117302 0.238537 4.89628 0.225159 10.9432C0.225159 16.9901 5.12156 21.8865 11.1685 21.8999C17.2154 21.8999 22.1118 17.0035 22.1252 10.9566C22.1252 4.89628 17.2288 -0.000117302 11.1819 -0.000117302ZM17.0147 10.9432C17.0147 14.1673 14.406 16.7761 11.1819 16.7894C7.95772 16.7894 5.33561 14.1807 5.33561 10.9566C5.33561 7.73244 7.94435 5.11033 11.1685 5.11033C14.3926 5.11033 17.0147 7.71906 17.0147 10.9432Z" fill="#1F1F1F" fill-opacity="0.8"/>
<path d="M42.1388 16.295H33.4564L44.5335 1.67268C44.8947 1.19107 44.5602 0.49541 43.9448 0.49541H28.0249C26.4462 0.49541 25.0951 1.94025 25.4295 3.57238C25.6703 4.77641 26.7941 5.59247 28.0249 5.59247H35.1554L24.0649 20.2282C23.7037 20.7098 24.0382 21.3921 24.6402 21.3921H42.0451C43.2759 21.3921 44.3997 20.576 44.6405 19.3719C44.9749 17.7264 43.7174 16.295 42.1388 16.295Z" fill="#1F1F1F" fill-opacity="0.8"/>
<path d="M100.575 3.05062V20.6696C100.575 20.8302 100.521 20.9907 100.414 21.1245C100.16 21.4456 99.6916 21.4991 99.3705 21.2449L85.5643 10.2882V18.8502C85.5643 20.295 84.3736 21.4456 82.9288 21.4054C81.5375 21.3653 80.4539 20.1746 80.4539 18.7833V1.2312C80.4539 1.05728 80.5074 0.896746 80.6144 0.762965C80.8686 0.455268 81.3368 0.401753 81.6445 0.655937L95.4507 11.6126V3.11751C95.4507 1.72619 96.5344 0.548915 97.9123 0.495402C99.3705 0.44189 100.575 1.60578 100.575 3.05062Z" fill="#1F1F1F" fill-opacity="0.8"/>
</svg>
