<svg width="169" height="46" viewBox="0 0 169 46" fill="none" xmlns="http://www.w3.org/2000/svg">
<path opacity="0.6" d="M14.8079 20.9777C14.8079 20.9777 52.9574 17.2844 88.4004 16.9229C123.843 16.5613 162.086 19.898 164.69 20.1667C167.294 20.4354 177.929 21.1438 141.919 19.7564C105.655 18.3494 82.5283 18.0953 60.4319 19.2678C38.3356 20.4403 16.7083 21.8522 10.3134 22.4237C-15.1392 24.6808 14.8079 20.9777 14.8079 20.9777Z" fill="#1F1F1F" fill-opacity="0.8"/>
<path opacity="0.6" d="M42.4636 5.95615C42.4636 5.95615 50.1433 4.03133 53.4947 3.34738C56.846 2.66344 63.7148 1.46653 60.1778 5.03282C57.7692 7.52956 55.5346 10.1885 53.4898 12.991C53.4898 12.991 85.9919 6.89902 103.569 3.35716C118.714 0.308711 138.744 -2.62249 135.402 3.98248C132.061 10.5874 120.746 16.8407 124.879 12.9861C126.863 11.1248 128.142 10.4018 130.859 7.68555C134.073 4.47101 136.721 -0.0625738 117.409 2.80023C98.0977 5.66303 48.8243 16.0248 48.8243 16.0248C48.8243 16.0248 53.2553 10.2113 55.0726 7.66601C56.89 5.12076 58.5803 3.59165 52.4688 4.83741C46.3572 6.08317 42.3219 6.46911 40.1382 6.75246C37.9545 7.03581 42.4636 5.95615 42.4636 5.95615Z" fill="#1F1F1F" fill-opacity="0.8"/>
<path opacity="0.6" d="M42.669 10.426C38.1061 10.6361 33.8754 11.1051 32.6052 11.5155C31.335 11.9258 39.5375 11.2419 42.2391 11.1833C44.9406 11.1246 42.669 10.426 42.669 10.426Z" fill="#1F1F1F" fill-opacity="0.8"/>
<path d="M29.0826 26.8016C29.2301 25.9457 29.6768 25.1701 30.3431 24.613C30.9832 24.0393 31.8138 23.7241 32.6733 23.7287H39.4835C39.8042 23.7165 40.1241 23.7676 40.4251 23.8791C40.726 23.9906 41.002 24.1603 41.2373 24.3785C41.4645 24.6037 41.6422 24.8738 41.7592 25.1716C41.8761 25.4694 41.9296 25.7882 41.9164 26.1079C41.912 26.2819 41.8924 26.4552 41.8578 26.6257L40.1137 36.4159C39.5273 36.3672 38.981 36.0984 38.5846 35.6636C38.2 35.2293 37.9941 34.6655 38.0081 34.0856C38.0092 33.9107 38.0222 33.736 38.0472 33.5629L38.9657 28.4675C39.0296 28.1921 39.0317 27.906 38.9718 27.6298C38.9118 27.3535 38.7912 27.094 38.6188 26.87C38.4456 26.6503 38.2219 26.4756 37.9667 26.3608C37.7116 26.246 37.4325 26.1944 37.1532 26.2105H33.6993C33.1327 26.2246 32.588 26.4319 32.1553 26.7979C31.7226 27.164 31.4279 27.6668 31.3201 28.2232L30.3724 33.4066C30.2346 34.1632 29.862 34.8572 29.3074 35.39C28.7726 35.9402 28.0727 36.3005 27.3141 36.4159L29.0826 26.8016Z" fill="#1F1F1F" fill-opacity="0.8"/>
<path d="M82.2301 30.0219L87.4721 36.4168H85.6254C85.078 36.4447 84.5317 36.3438 84.0303 36.1224C83.5289 35.9009 83.0864 35.5651 82.7382 35.1418L79.9878 31.81C79.9143 31.7222 79.8211 31.653 79.7158 31.608C79.6106 31.5631 79.4962 31.5435 79.382 31.551C79.164 31.5348 78.9483 31.6052 78.7818 31.747C78.6154 31.8887 78.5115 32.0904 78.4929 32.3083L78.273 33.3782C78.1345 34.1372 77.7761 34.8388 77.2422 35.3958C76.7266 35.9493 76.0369 36.3096 75.2881 36.4168L76.998 26.7732C77.1277 26.0137 77.4855 25.3117 78.0239 24.7604C78.5412 24.2074 79.2294 23.8443 79.978 23.7296L79.2794 27.6672C79.1817 28.2681 79.4455 28.5661 80.0659 28.5661C80.2864 28.567 80.4991 28.485 80.6619 28.3365L84.5702 25.034C85.5154 24.2009 86.73 23.7377 87.9899 23.7296H89.5777L82.2301 30.0219Z" fill="#1F1F1F" fill-opacity="0.8"/>
<path d="M106.031 26.6163L104.81 33.3776C104.662 34.2203 104.223 34.9843 103.569 35.5369C102.941 36.1034 102.124 36.4167 101.278 36.4162H94.4679C94.1446 36.4278 93.8222 36.375 93.5194 36.261C93.2167 36.1469 92.9396 35.9738 92.7043 35.7518C92.4726 35.527 92.2907 35.256 92.1703 34.9564C92.05 34.6568 91.9939 34.3353 92.0057 34.0127C92.014 33.8487 92.0336 33.6854 92.0643 33.5241L93.2563 26.7775C93.4152 25.9406 93.8588 25.1846 94.5119 24.6377C95.1406 24.0589 95.9632 23.7365 96.8177 23.7339H103.657C103.977 23.7164 104.297 23.7663 104.596 23.8802C104.895 23.9941 105.167 24.1696 105.394 24.3952C105.621 24.6209 105.798 24.8917 105.914 25.1901C106.029 25.4886 106.081 25.808 106.066 26.1277C106.065 26.2911 106.053 26.4543 106.031 26.6163ZM101.302 26.2499H97.8388C97.264 26.253 96.7121 26.4749 96.295 26.8703C95.858 27.2497 95.5634 27.7666 95.4596 28.3359L94.8294 31.5798C94.7647 31.859 94.7623 32.1491 94.8222 32.4293C94.8822 32.7096 95.003 32.9733 95.1763 33.2017C95.3438 33.4299 95.5655 33.6128 95.8213 33.7339C96.0772 33.855 96.3592 33.9105 96.6419 33.8954H100.115C100.698 33.8946 101.257 33.6667 101.674 33.2603C102.118 32.8697 102.414 32.3386 102.514 31.7556L103.09 28.5411C103.153 28.2652 103.155 27.979 103.096 27.7023C103.037 27.4257 102.918 27.1651 102.749 26.9387C102.581 26.7155 102.362 26.5362 102.11 26.4162C101.858 26.2962 101.581 26.2392 101.302 26.2499Z" fill="#1F1F1F" fill-opacity="0.8"/>
<path d="M65.5174 25.4779C65.9034 24.9729 66.4045 24.5676 66.979 24.2956C67.5535 24.0237 68.1846 23.893 68.8199 23.9146L72.904 24.0025L70.774 36.7484C70.1948 36.6982 69.6591 36.4207 69.284 35.9765C68.9025 35.5275 68.6839 34.9629 68.6636 34.3741C68.6439 34.2118 68.6439 34.0478 68.6636 33.8856L70.0217 27.5639C70.044 27.3874 70.0266 27.208 69.9708 27.039C69.915 26.87 69.8223 26.7155 69.6992 26.5869C69.5843 26.4546 69.4425 26.3483 69.2833 26.2751C69.1241 26.2018 68.9512 26.1632 68.7759 26.1619C68.5947 26.1577 68.4145 26.1906 68.2465 26.2587C68.0784 26.3267 67.9261 26.4284 67.7988 26.5576L62.9135 32.9476C62.6128 33.3336 62.225 33.6428 61.7817 33.85C61.3384 34.0572 60.8524 34.1565 60.3634 34.1396L58.7463 34.1054L65.5174 25.4779Z" fill="#1F1F1F" fill-opacity="0.8"/>
<path d="M141.372 26.6163L140.155 33.3776C140.003 34.22 139.563 34.9832 138.91 35.5369C138.281 36.1034 137.465 36.4167 136.619 36.4162H129.813C129.49 36.4278 129.168 36.375 128.865 36.261C128.562 36.1469 128.285 35.9739 128.05 35.7518C127.819 35.5268 127.637 35.2556 127.518 34.956C127.398 34.6564 127.343 34.335 127.356 34.0127C127.362 33.8487 127.38 33.6855 127.41 33.5241L128.602 26.7775C128.762 25.9401 129.208 25.1841 129.862 24.6377C130.49 24.0601 131.31 23.7377 132.163 23.7339H139.003C139.323 23.7164 139.643 23.7664 139.942 23.8806C140.242 23.9948 140.514 24.1707 140.741 24.3969C140.968 24.6231 141.145 24.8945 141.261 25.1935C141.376 25.4926 141.427 25.8125 141.411 26.1326C141.411 26.2946 141.398 26.4563 141.372 26.6163ZM136.643 26.2499H133.179C132.599 26.2493 132.042 26.4714 131.621 26.8703C131.185 27.2509 130.891 27.7673 130.785 28.3359L130.189 31.5456C130.127 31.825 130.126 32.1145 130.186 32.3943C130.246 32.6742 130.365 32.9379 130.536 33.1675C130.704 33.3957 130.925 33.5786 131.181 33.6997C131.437 33.8209 131.719 33.8763 132.002 33.8612H135.475C136.058 33.8604 136.617 33.6326 137.034 33.2261C137.465 32.8426 137.755 32.3243 137.854 31.7556L138.431 28.5411C138.493 28.2652 138.495 27.979 138.436 27.7023C138.377 27.4257 138.259 27.1651 138.089 26.9387C137.922 26.7152 137.703 26.5357 137.451 26.4157C137.199 26.2956 136.922 26.2387 136.643 26.2499Z" fill="#1F1F1F" fill-opacity="0.8"/>
<path d="M55.7909 33.5585C55.6392 34.407 55.1886 35.1731 54.5207 35.7179C53.8705 36.2877 53.0354 36.6019 52.1709 36.6021H44.2029C44.4673 35.8728 44.9472 35.2412 45.5789 34.791C46.2106 34.3408 46.9643 34.0933 47.7399 34.0813H51.8387C52.0183 34.0995 52.1999 34.0821 52.3728 34.03C52.5457 33.978 52.7067 33.8923 52.8465 33.778C52.9863 33.6636 53.1021 33.5228 53.1874 33.3636C53.2726 33.2044 53.3256 33.0299 53.3434 32.8502C53.3737 32.6783 53.3663 32.5018 53.3216 32.3331C53.2769 32.1644 53.196 32.0074 53.0844 31.8731C52.9713 31.7381 52.8289 31.6306 52.6681 31.5586C52.5073 31.4867 52.3323 31.4522 52.1562 31.4579H46.2938C45.6529 31.4815 45.0255 31.2694 44.5302 30.8618C44.2972 30.6589 44.1132 30.4058 43.9922 30.1214C43.8712 29.8371 43.8163 29.529 43.8316 29.2204C43.8394 29.0563 43.859 28.8931 43.8902 28.7318L44.7012 23.9296C44.9818 23.9486 45.2559 24.0232 45.5075 24.149C45.7591 24.2748 45.9832 24.4493 46.1668 24.6624C46.5376 25.101 46.7325 25.6614 46.714 26.2354C46.7087 26.4207 46.6891 26.6053 46.6553 26.7875C46.6025 27.0674 46.6073 27.3552 46.6695 27.6332C46.7317 27.9113 46.8499 28.1737 47.0169 28.4045C47.182 28.6273 47.3994 28.8062 47.6498 28.9254C47.9002 29.0447 48.176 29.1007 48.4531 29.0885H51.9315C52.5157 29.085 53.0759 28.8557 53.4948 28.4485C53.9404 28.0506 54.2454 27.5194 54.3644 26.934C54.5175 26.1601 54.9107 25.4541 55.488 24.9164C56.0311 24.3677 56.7372 24.0095 57.5008 23.8954L55.7909 33.5585Z" fill="#1F1F1F" fill-opacity="0.8"/>
<path d="M123.707 26.2397L122.49 33.0303C122.333 33.8752 121.879 34.636 121.21 35.175C120.562 35.7443 119.728 36.057 118.865 36.0543H109.222L111.479 23.3525H121.249C121.902 23.3373 122.536 23.5754 123.018 24.0169C123.254 24.2318 123.442 24.4955 123.567 24.7899C123.691 25.0843 123.751 25.4023 123.741 25.7219C123.742 25.8951 123.731 26.0682 123.707 26.2397ZM118.865 30.8808H113.853C113.488 30.8468 113.125 30.9588 112.843 31.1924C112.561 31.426 112.383 31.7619 112.348 32.1265C112.319 32.2984 112.328 32.4745 112.372 32.643C112.417 32.8115 112.497 32.9685 112.607 33.1036C112.72 33.2394 112.862 33.3476 113.023 33.4196C113.184 33.4916 113.359 33.5256 113.535 33.5188H118.577C118.758 33.5355 118.94 33.5154 119.113 33.4597C119.286 33.404 119.445 33.3138 119.582 33.1946C119.719 33.0755 119.831 32.9298 119.91 32.7663C119.989 32.6029 120.034 32.4251 120.043 32.2438C120.061 32.129 120.07 32.0131 120.072 31.8969C120.078 31.2195 119.676 30.8808 118.865 30.8808ZM119.745 25.8928H113.506L113.218 27.2949C113.193 27.4613 113.207 27.6312 113.259 27.7911C113.311 27.9511 113.399 28.0968 113.517 28.2167C113.635 28.3366 113.78 28.4274 113.939 28.4819C114.098 28.5365 114.267 28.5532 114.434 28.5309H119.447C119.627 28.5491 119.808 28.5315 119.982 28.4792C120.155 28.4268 120.316 28.3408 120.456 28.2259C120.596 28.111 120.712 27.9696 120.797 27.8099C120.882 27.6501 120.934 27.4751 120.951 27.2949C120.982 27.123 120.975 26.9465 120.93 26.7777C120.885 26.6089 120.804 26.452 120.692 26.3179C120.579 26.1775 120.434 26.0659 120.269 25.992C120.105 25.9182 119.925 25.8842 119.745 25.8928Z" fill="#1F1F1F" fill-opacity="0.8"/>
<path opacity="0.6" d="M41.5063 42.7417L40.793 44.1633H40.2068L42.5566 39.6688H43.2015L43.8268 44.1633H43.2406L43.0452 42.7417H41.5063ZM43.011 42.302L42.84 41.0025C42.8107 40.7729 42.7765 40.4358 42.7569 40.1769C42.6348 40.4456 42.5224 40.724 42.3905 40.9976L41.7164 42.302H43.011Z" fill="#1F1F1F" fill-opacity="0.8"/>
<path opacity="0.6" d="M44.9505 42.3324H46.4161C46.4209 42.2918 46.4209 42.2508 46.4161 42.2103C46.4212 42.0883 46.4005 41.9667 46.3553 41.8533C46.3101 41.7399 46.2414 41.6374 46.1537 41.5525C46.066 41.4676 45.9614 41.4022 45.8466 41.3606C45.7318 41.3191 45.6096 41.3023 45.4879 41.3114C45.2351 41.309 44.9849 41.3623 44.7551 41.4677L44.6476 41.0671C44.9292 40.936 45.2359 40.8677 45.5465 40.8668C45.739 40.8559 45.9315 40.8869 46.1108 40.9576C46.2902 41.0284 46.4521 41.1371 46.5853 41.2764C46.7186 41.4157 46.8201 41.5823 46.8828 41.7646C46.9455 41.9468 46.9679 42.1406 46.9486 42.3324C46.9646 42.5802 46.9282 42.8286 46.8419 43.0614C46.7555 43.2943 46.6211 43.5063 46.4473 43.6837C46.2736 43.8612 46.0644 44 45.8335 44.0912C45.6025 44.1825 45.3549 44.224 45.1068 44.2132C44.7805 44.2194 44.4584 44.1384 44.1737 43.9787L44.3252 43.5733C44.5685 43.6934 44.8354 43.7585 45.1068 43.7638C45.4099 43.7756 45.7062 43.6724 45.9363 43.4749C46.1664 43.2773 46.3134 43.0001 46.3477 42.6988H44.8821L44.9505 42.3324Z" fill="#1F1F1F" fill-opacity="0.8"/>
<path opacity="0.6" d="M47.0852 45.4839L47.7301 42.0642C47.8033 41.6734 47.8717 41.2386 47.9108 40.9112H48.3994L48.331 41.5268C48.4534 41.3273 48.6231 41.161 48.825 41.0426C49.0269 40.9242 49.2549 40.8572 49.4888 40.8477C50.1825 40.8477 50.4659 41.4193 50.4659 42.0104C50.4659 43.1536 49.65 44.2186 48.5801 44.2186C48.3402 44.2298 48.1013 44.1793 47.8864 44.0721L47.6372 45.4839H47.0852ZM47.9939 43.6226C48.1729 43.7504 48.3897 43.8141 48.6094 43.8034C49.3227 43.8034 49.9187 42.9191 49.9187 42.0691C49.9187 41.732 49.7721 41.3265 49.2983 41.3265C48.8244 41.3265 48.3212 41.815 48.16 42.7237L47.9939 43.6226Z" fill="#1F1F1F" fill-opacity="0.8"/>
<path opacity="0.6" d="M50.9252 42.909C50.893 42.4014 51.063 41.9018 51.398 41.5192C51.733 41.1365 52.2059 40.902 52.7132 40.8669C52.8868 40.8621 53.0594 40.8941 53.2198 40.9607C53.3801 41.0274 53.5245 41.1272 53.6436 41.2536C53.7626 41.38 53.8535 41.5302 53.9104 41.6942C53.9673 41.8583 53.9889 42.0325 53.9736 42.2055C53.9736 43.1826 53.2701 44.2378 52.1856 44.2378C52.0129 44.2425 51.8412 44.2107 51.6816 44.1447C51.522 44.0786 51.378 43.9797 51.2592 43.8544C51.1403 43.729 51.0491 43.5801 50.9916 43.4172C50.934 43.2543 50.9114 43.0812 50.9252 42.909ZM53.402 42.2055C53.402 41.8293 53.2311 41.3066 52.6497 41.3066C51.956 41.3066 51.4968 42.1518 51.4968 42.8895C51.4968 43.4171 51.7899 43.7981 52.2589 43.7981C52.9086 43.7981 53.402 42.9578 53.402 42.2055Z" fill="#1F1F1F" fill-opacity="0.8"/>
<path opacity="0.6" d="M54.3645 44.164L54.7895 41.8776C54.8579 41.5161 54.9117 41.2035 54.9459 40.9397H55.4344L55.3513 41.5699C55.474 41.3611 55.6478 41.1869 55.8563 41.0639C56.0649 40.9408 56.3013 40.8728 56.5434 40.8664C56.6589 40.8611 56.7743 40.8812 56.8813 40.9254C56.9882 40.9695 57.0842 41.0365 57.1625 41.1218C57.2407 41.207 57.2993 41.3084 57.3342 41.4187C57.369 41.529 57.3792 41.6457 57.3641 41.7604C57.3578 41.9345 57.3365 42.1078 57.3006 42.2782L56.944 44.164H56.3968L56.7485 42.2978C56.7736 42.1607 56.7883 42.0219 56.7925 41.8825C56.7925 41.565 56.6655 41.3256 56.304 41.3256C55.9425 41.3256 55.3269 41.8141 55.2048 42.6007L54.9117 44.164H54.3645Z" fill="#1F1F1F" fill-opacity="0.8"/>
<path opacity="0.6" d="M57.9551 42.9082C57.9305 42.4025 58.1032 41.907 58.4367 41.5261C58.7703 41.1452 59.2386 40.9086 59.7431 40.8662C59.9171 40.8607 60.0903 40.8921 60.2512 40.9584C60.4121 41.0248 60.5572 41.1245 60.6767 41.251C60.7963 41.3775 60.8877 41.5279 60.9449 41.6923C61.002 41.8567 61.0237 42.0314 61.0084 42.2048C61.0084 43.1818 60.3049 44.2371 59.2155 44.2371C59.0428 44.2417 58.8711 44.21 58.7115 44.1439C58.5519 44.0779 58.408 43.979 58.2891 43.8536C58.1702 43.7283 58.079 43.5794 58.0215 43.4165C57.9639 43.2536 57.9413 43.0804 57.9551 42.9082ZM60.4368 42.2048C60.4512 42.0955 60.4426 41.9845 60.4118 41.8787C60.3811 41.7729 60.3286 41.6747 60.2579 41.5902C60.1872 41.5057 60.0997 41.4368 60.001 41.3879C59.9023 41.3389 59.7945 41.311 59.6845 41.3059C58.9908 41.3059 58.5316 42.151 58.5316 42.8887C58.5316 43.4163 58.8247 43.7974 59.2888 43.7974C59.9434 43.7974 60.4368 42.9571 60.4368 42.2048Z" fill="#1F1F1F" fill-opacity="0.8"/>
<path opacity="0.6" d="M61.1208 45.4839L61.7706 42.0642C61.8439 41.6734 61.9074 41.2386 61.9514 40.9112H62.4399L62.3471 41.5268C62.4703 41.3269 62.6408 41.1604 62.8436 41.042C63.0464 40.9236 63.2751 40.8569 63.5098 40.8477C64.1986 40.8477 64.4868 41.4193 64.4868 42.0104C64.4868 43.1536 63.671 44.2186 62.5962 44.2186C62.3579 44.2294 62.1207 44.1789 61.9074 44.0721L61.6485 45.4644L61.1208 45.4839ZM62.0295 43.6226C62.2098 43.7515 62.4286 43.8152 62.65 43.8034C63.3632 43.8034 63.9543 42.9191 63.9543 42.0691C63.9543 41.732 63.8078 41.3265 63.3339 41.3265C62.86 41.3265 62.3568 41.815 62.1956 42.7237L62.0295 43.6226Z" fill="#1F1F1F" fill-opacity="0.8"/>
<path opacity="0.6" d="M64.9117 44.1639L65.3368 41.8776C65.4052 41.5161 65.4491 41.2034 65.4833 40.9396H65.9719L65.8888 41.5258C66.0039 41.3252 66.1686 41.1575 66.367 41.0386C66.5654 40.9197 66.791 40.8537 67.0222 40.8468C67.1199 40.84 67.2179 40.8536 67.31 40.8868C67.402 40.92 67.4862 40.9721 67.557 41.0397C67.6278 41.1073 67.6837 41.1889 67.7212 41.2794C67.7587 41.3698 67.7768 41.4671 67.7745 41.5649C67.89 41.352 68.0597 41.1734 68.2665 41.0473C68.4733 40.9211 68.7098 40.852 68.9519 40.8468C69.0612 40.8434 69.1699 40.8635 69.2708 40.9056C69.3717 40.9477 69.4625 41.0109 69.537 41.0909C69.6114 41.1709 69.668 41.266 69.7027 41.3696C69.7375 41.4733 69.7496 41.5832 69.7384 41.6919C69.7359 41.8755 69.7179 42.0585 69.6847 42.2391L69.3281 44.1444H68.7858L69.1327 42.2831C69.1625 42.145 69.1772 42.0042 69.1766 41.8629C69.1766 41.5258 69.0545 41.306 68.6881 41.306C68.3217 41.306 67.8087 41.7945 67.6768 42.4931L67.3691 44.1444H66.8366L67.1932 42.2538C67.221 42.1236 67.2357 41.9911 67.2372 41.858C67.2372 41.5845 67.1639 41.306 66.7486 41.306C66.3334 41.306 65.84 41.8385 65.7129 42.5224L65.4198 44.1444L64.9117 44.1639Z" fill="#1F1F1F" fill-opacity="0.8"/>
<path opacity="0.6" d="M74.6288 44.0165C74.2576 44.1641 73.8605 44.2356 73.4612 44.2266C73.2145 44.2448 72.9668 44.2089 72.7354 44.1215C72.504 44.034 72.2945 43.8972 72.1215 43.7204C71.9484 43.5436 71.816 43.3312 71.7335 43.098C71.6511 42.8648 71.6204 42.6164 71.6439 42.3702C71.6378 41.9598 71.7222 41.5532 71.8911 41.1792C72.06 40.8051 72.3091 40.4729 72.6209 40.206C73.0932 39.808 73.6937 39.5945 74.3113 39.6051C74.6503 39.5887 74.9875 39.6629 75.2883 39.8201L75.1076 40.2646C74.831 40.131 74.5253 40.0688 74.2184 40.0839C73.7451 40.0857 73.2886 40.2593 72.9336 40.5724C72.711 40.7972 72.5358 41.0643 72.4183 41.358C72.3008 41.6517 72.2435 41.966 72.2496 42.2823C72.2496 43.0835 72.6161 43.7479 73.6127 43.7479C73.9488 43.7558 74.2825 43.6891 74.5897 43.5524L74.6288 44.0165Z" fill="#1F1F1F" fill-opacity="0.8"/>
<path opacity="0.6" d="M77.2863 44.1641C77.2863 43.9686 77.3205 43.6755 77.3596 43.3287C77.2617 43.5861 77.0907 43.8092 76.8676 43.9707C76.6446 44.1321 76.3791 44.2248 76.104 44.2373C75.9726 44.2306 75.8438 44.1975 75.7255 44.1398C75.6071 44.0821 75.5017 44.001 75.4155 43.9016C75.3292 43.8021 75.264 43.6862 75.2236 43.5609C75.1833 43.4356 75.1687 43.3034 75.1807 43.1723C75.1729 42.874 75.2246 42.577 75.3329 42.2989C75.4411 42.0207 75.6036 41.7669 75.811 41.5522C76.0184 41.3376 76.2664 41.1664 76.5407 41.0486C76.815 40.9309 77.11 40.869 77.4084 40.8665C77.7023 40.8658 77.9948 40.9052 78.278 40.9837L77.9507 42.6691C77.8556 43.1617 77.8098 43.6625 77.8139 44.1641H77.2863ZM77.6429 41.3501C77.5188 41.3166 77.3904 41.3018 77.2619 41.3061C76.4265 41.3061 75.7425 42.1708 75.7425 43.0697C75.7425 43.4313 75.8695 43.783 76.2946 43.783C76.7196 43.783 77.3009 43.1821 77.4622 42.3174L77.6429 41.3501Z" fill="#1F1F1F" fill-opacity="0.8"/>
<path opacity="0.6" d="M79.7875 40.9395L79.5481 42.2439H81.0137L81.2628 40.9395H81.8149L81.1993 44.1638H80.6619L80.9404 42.6982H79.4748L79.1963 44.1638H78.6443L79.255 40.9395H79.7875Z" fill="#1F1F1F" fill-opacity="0.8"/>
<path opacity="0.6" d="M83.3049 40.9395L83.0411 42.366H83.1584L84.5702 40.9395H85.2346L83.6616 42.4051C84.0084 42.5028 84.2087 42.8008 84.3699 43.3138C84.4823 43.646 84.5556 43.9587 84.6484 44.1541H84.0817C83.9938 43.9733 83.9254 43.6655 83.813 43.3675C83.6274 42.879 83.4368 42.708 83.046 42.708H82.9483L82.6747 44.1736H82.1324L82.748 40.9493L83.3049 40.9395Z" fill="#1F1F1F" fill-opacity="0.8"/>
<path opacity="0.6" d="M85.1956 44.1639L85.6206 41.8776C85.6825 41.5161 85.7313 41.2034 85.7671 40.9396H86.2557L86.1726 41.5258C86.2878 41.3252 86.4524 41.1575 86.6508 41.0386C86.8492 40.9197 87.0748 40.8537 87.306 40.8468C87.4037 40.84 87.5017 40.8536 87.5938 40.8868C87.6858 40.92 87.77 40.9721 87.8408 41.0397C87.9116 41.1073 87.9675 41.1889 88.005 41.2794C88.0425 41.3698 88.0606 41.4671 88.0584 41.5649C88.1738 41.352 88.3435 41.1734 88.5503 41.0473C88.7571 40.9211 88.9936 40.852 89.2357 40.8468C89.345 40.8434 89.4537 40.8635 89.5546 40.9056C89.6555 40.9477 89.7463 41.0109 89.8208 41.0909C89.8953 41.1709 89.9518 41.266 89.9865 41.3696C90.0213 41.4733 90.0335 41.5832 90.0223 41.6919C90.0197 41.8755 90.0017 42.0585 89.9685 42.2391L89.6119 44.1444H89.0696L89.4165 42.2831C89.4453 42.1448 89.4617 42.0042 89.4653 41.8629C89.4653 41.5258 89.3383 41.306 88.9768 41.306C88.6153 41.306 88.0974 41.7945 87.9655 42.4931L87.6578 44.1444H87.1253L87.4819 42.2538C87.5097 42.1236 87.5244 41.9911 87.5259 41.858C87.5259 41.5845 87.4526 41.306 87.0373 41.306C86.6221 41.306 86.1287 41.8385 86.0016 42.5224L85.7085 44.1444L85.1956 44.1639Z" fill="#1F1F1F" fill-opacity="0.8"/>
<path opacity="0.6" d="M92.2991 42.1506L92.2209 42.5756H90.6234L90.7065 42.1506H92.2991Z" fill="#1F1F1F" fill-opacity="0.8"/>
<path opacity="0.6" d="M96.5589 39.6688L95.704 44.1633H95.1519L95.9238 40.1427H93.9697L93.2027 44.1633H92.6506L93.5007 39.6688H96.5589Z" fill="#1F1F1F" fill-opacity="0.8"/>
<path opacity="0.6" d="M99.0164 43.9679C98.6867 44.1362 98.3216 44.2232 97.9514 44.222C97.7815 44.2316 97.6115 44.204 97.4534 44.1411C97.2952 44.0781 97.1527 43.9814 97.0359 43.8576C96.9191 43.7338 96.8308 43.5859 96.7771 43.4244C96.7234 43.2629 96.7057 43.0916 96.7252 42.9225C96.7252 41.9454 97.4482 40.8511 98.4839 40.8511C98.6021 40.8358 98.7222 40.8459 98.8362 40.8806C98.9502 40.9154 99.0556 40.9739 99.1452 41.0525C99.2348 41.131 99.3067 41.2277 99.3561 41.3362C99.4055 41.4447 99.4313 41.5624 99.4317 41.6816C99.4317 42.5267 98.479 42.7466 97.287 42.727C97.2587 42.9344 97.2805 43.1454 97.3505 43.3426C97.4109 43.4799 97.5124 43.595 97.6411 43.672C97.7697 43.7491 97.9192 43.7842 98.0687 43.7725C98.3724 43.7734 98.6715 43.6978 98.9383 43.5527L99.0164 43.9679ZM98.4058 41.281C97.8782 41.281 97.4873 41.7695 97.3457 42.302C98.2152 42.302 98.8943 42.1945 98.8943 41.6865C98.8943 41.4422 98.6989 41.2956 98.4058 41.2956V41.281Z" fill="#1F1F1F" fill-opacity="0.8"/>
<path opacity="0.6" d="M99.7151 44.1639L100.14 41.8776C100.209 41.5161 100.252 41.2034 100.287 40.9396H100.775L100.692 41.5258C100.808 41.3255 100.972 41.158 101.171 41.0392C101.369 40.9204 101.594 40.8541 101.826 40.8468C101.923 40.84 102.021 40.8536 102.113 40.8868C102.205 40.92 102.29 40.9721 102.36 41.0397C102.431 41.1073 102.487 41.1889 102.525 41.2794C102.562 41.3698 102.58 41.4671 102.578 41.5649C102.694 41.3526 102.864 41.1746 103.071 41.0486C103.277 40.9225 103.513 40.853 103.755 40.8468C103.865 40.8434 103.973 40.8635 104.074 40.9056C104.175 40.9477 104.266 41.0109 104.34 41.0909C104.415 41.1709 104.471 41.266 104.506 41.3696C104.541 41.4733 104.553 41.5832 104.542 41.6919C104.539 41.8755 104.521 42.0585 104.488 42.2391L104.131 44.1444H103.623L103.97 42.2831C104.002 42.1452 104.018 42.0043 104.019 41.8629C104.019 41.5258 103.892 41.306 103.531 41.306C103.169 41.306 102.651 41.7945 102.519 42.4931L102.211 44.1444H101.669L102.031 42.2538C102.055 42.1232 102.068 41.9908 102.07 41.858C102.07 41.5845 101.997 41.306 101.581 41.306C101.166 41.306 100.673 41.8385 100.546 42.5224L100.252 44.1444L99.7151 44.1639Z" fill="#1F1F1F" fill-opacity="0.8"/>
<path opacity="0.6" d="M107.424 43.968C107.094 44.1362 106.729 44.2233 106.359 44.222C106.189 44.2317 106.019 44.2041 105.861 44.1411C105.703 44.0782 105.56 43.9814 105.443 43.8576C105.327 43.7338 105.238 43.586 105.185 43.4244C105.131 43.2629 105.113 43.0916 105.133 42.9225C105.133 41.9454 105.851 40.8511 106.891 40.8511C107.009 40.8358 107.129 40.8459 107.243 40.8806C107.357 40.9154 107.462 40.9741 107.551 41.0527C107.64 41.1313 107.712 41.2281 107.761 41.3366C107.809 41.445 107.835 41.5627 107.834 41.6816C107.834 42.5268 106.857 42.7466 105.69 42.7271C105.663 42.9348 105.687 43.1458 105.758 43.3426C105.818 43.4799 105.92 43.595 106.049 43.6721C106.177 43.7491 106.327 43.7842 106.476 43.7725C106.778 43.7744 107.076 43.6987 107.341 43.5527L107.424 43.968ZM106.808 41.281C106.286 41.281 105.89 41.7696 105.748 42.3021C106.623 42.3021 107.302 42.1946 107.302 41.6865C107.302 41.4422 107.101 41.2957 106.808 41.2957V41.281Z" fill="#1F1F1F" fill-opacity="0.8"/>
<path opacity="0.6" d="M107.829 45.4839L108.479 42.0642C108.552 41.6734 108.616 41.2386 108.66 40.9112H109.149L109.075 41.5268C109.198 41.3273 109.367 41.161 109.569 41.0426C109.771 40.9242 109.999 40.8572 110.233 40.8477C110.927 40.8477 111.21 41.4193 111.21 42.0104C111.21 43.1536 110.399 44.2186 109.324 44.2186C109.086 44.23 108.849 44.1795 108.636 44.0721L108.377 45.4644L107.829 45.4839ZM108.738 43.6226C108.918 43.7515 109.137 43.8152 109.359 43.8034C110.072 43.8034 110.663 42.9191 110.663 42.0691C110.663 41.732 110.516 41.3265 110.043 41.3265C109.569 41.3265 109.065 41.815 108.904 42.7237L108.738 43.6226Z" fill="#1F1F1F" fill-opacity="0.8"/>
<path opacity="0.6" d="M114.942 39.8495C114.793 39.9002 114.639 39.9362 114.483 39.9569C114.176 39.9612 113.872 40.0275 113.591 40.1517C113.31 40.276 113.057 40.4556 112.846 40.68C112.633 40.9577 112.479 41.2773 112.397 41.618C112.519 41.4133 112.691 41.2433 112.897 41.1244C113.103 41.0055 113.336 40.9416 113.574 40.9389C113.729 40.9397 113.882 40.9733 114.022 41.0376C114.163 41.1019 114.288 41.1954 114.39 41.3118C114.491 41.4283 114.567 41.565 114.612 41.713C114.656 41.8609 114.669 42.0167 114.649 42.17C114.649 43.1471 114.024 44.2365 112.91 44.2365C112.123 44.2365 111.737 43.6356 111.737 42.7269C111.72 41.8924 111.986 41.0765 112.49 40.4113C112.736 40.133 113.036 39.9079 113.372 39.7499C113.708 39.592 114.073 39.5045 114.444 39.4928C114.627 39.4678 114.807 39.4252 114.981 39.3658L114.942 39.8495ZM114.092 42.2237C114.092 41.7694 113.907 41.3639 113.433 41.3639C113.261 41.3784 113.095 41.4328 112.949 41.5227C112.802 41.6126 112.678 41.7356 112.588 41.8818C112.403 42.1741 112.307 42.5132 112.309 42.8588C112.309 43.3474 112.514 43.787 113.003 43.787C113.726 43.8066 114.092 42.8833 114.092 42.2237Z" fill="#1F1F1F" fill-opacity="0.8"/>
<path opacity="0.6" d="M115.709 40.9399L116.032 42.6693C116.1 43.0455 116.154 43.2897 116.188 43.534C116.281 43.3239 116.388 43.0943 116.54 42.7377L117.326 40.9399H117.913C117.576 41.6727 117.067 42.7572 116.75 43.3826C116.464 44.0017 116.077 44.5695 115.607 45.0631C115.352 45.3305 115.029 45.5245 114.674 45.6249L114.537 45.1364C114.75 45.0699 114.95 44.9675 115.128 44.8335C115.384 44.6281 115.596 44.3741 115.753 44.086C115.764 44.0631 115.77 44.0381 115.77 44.0128C115.77 43.9874 115.764 43.9624 115.753 43.9395L115.099 40.9155L115.709 40.9399Z" fill="#1F1F1F" fill-opacity="0.8"/>
<path opacity="0.6" d="M117.634 45.4839L118.284 42.0642C118.357 41.6734 118.421 41.2386 118.465 40.9112H118.953L118.88 41.5268C119.002 41.3273 119.172 41.161 119.374 41.0426C119.576 40.9242 119.804 40.8572 120.038 40.8477C120.731 40.8477 121.015 41.4193 121.015 42.0104C121.015 43.1536 120.204 44.2186 119.129 44.2186C118.891 44.23 118.653 44.1795 118.44 44.0721L118.181 45.4644L117.634 45.4839ZM118.543 43.6226C118.723 43.7515 118.942 43.8152 119.163 43.8034C119.872 43.8034 120.468 42.9191 120.468 42.0691C120.468 41.732 120.321 41.3265 119.847 41.3265C119.373 41.3265 118.87 41.815 118.709 42.7237L118.543 43.6226Z" fill="#1F1F1F" fill-opacity="0.8"/>
<path opacity="0.6" d="M121.909 41.0907C122.168 40.9476 122.458 40.872 122.754 40.8709C123.33 40.8709 123.628 41.1982 123.628 41.6574C123.628 42.2046 123.14 42.4635 122.651 42.7029C122.256 42.8886 121.928 43.0693 121.928 43.3966C121.928 43.6213 122.065 43.7972 122.417 43.8021C122.688 43.7932 122.953 43.7177 123.189 43.5823L123.277 43.9829C122.977 44.146 122.641 44.23 122.3 44.2271C121.728 44.2271 121.367 43.9242 121.367 43.4015C121.367 42.8788 121.855 42.5563 122.344 42.317C122.681 42.1558 123.086 41.9897 123.086 41.6721C123.086 41.4718 122.949 41.3106 122.647 41.3057C122.421 41.3078 122.199 41.3666 122.002 41.4767L121.909 41.0907Z" fill="#1F1F1F" fill-opacity="0.8"/>
<path opacity="0.6" d="M126.027 44.1641C126.027 43.9686 126.062 43.6755 126.101 43.3287C126.004 43.586 125.834 43.8094 125.612 43.9709C125.39 44.1325 125.125 44.2251 124.85 44.2373C124.718 44.2313 124.589 44.1986 124.47 44.1411C124.351 44.0837 124.245 44.0028 124.158 43.9033C124.071 43.8037 124.006 43.6876 123.965 43.562C123.925 43.4364 123.91 43.3038 123.922 43.1723C123.914 42.8736 123.966 42.5762 124.074 42.2977C124.183 42.0193 124.346 41.7652 124.554 41.5505C124.762 41.3358 125.01 41.1647 125.285 41.0472C125.56 40.9298 125.855 40.8683 126.154 40.8665C126.447 40.8658 126.738 40.9052 127.019 40.9837L126.697 42.6691C126.602 43.1617 126.556 43.6625 126.56 44.1641H126.027ZM126.379 41.3501C126.255 41.3159 126.127 41.301 125.998 41.3061C125.168 41.3061 124.484 42.1708 124.484 43.0697C124.484 43.4313 124.611 43.783 125.036 43.783C125.461 43.783 126.042 43.1821 126.198 42.3174L126.379 41.3501Z" fill="#1F1F1F" fill-opacity="0.8"/>
</svg>
