<svg width="144" height="38" viewBox="0 0 144 38" fill="none" xmlns="http://www.w3.org/2000/svg">
<path d="M113.608 27.0656L118.593 32.7319H115.355L111.499 28.3643V32.7319H108.815V22.1659H111.499V26.0006L115.29 22.1659H118.465L113.607 27.0656H113.608ZM33.2881 25.0209C35.2474 25.0209 36.1424 24.0836 36.1424 22.6776C36.1424 21.2716 35.2474 20.3343 33.2881 20.3343H29.4111V25.0209H33.2881ZM33.3735 17.8202C36.7396 17.8202 38.9551 19.5452 38.9551 22.6769C38.9551 25.8086 36.7396 27.5343 33.3735 27.5343H29.4111V32.7319H26.5991V17.8202H33.3735ZM45.3017 30.5164C46.8778 30.5164 48.348 29.3878 48.348 27.4489C48.348 25.51 46.8778 24.3814 45.3017 24.3814C43.7257 24.3814 42.2554 25.5107 42.2554 27.4489C42.2554 29.387 43.7257 30.5164 45.3017 30.5164ZM45.3017 21.868C48.1991 21.868 51.0746 23.7427 51.0746 27.4496C51.0746 31.1566 48.1991 33.0305 45.3017 33.0305C42.4044 33.0305 39.5289 31.1566 39.5289 27.4496C39.5289 23.7427 42.4044 21.868 45.3017 21.868ZM57.9278 30.5171C56.3087 30.5171 55.1158 29.3454 55.1158 27.4496C55.1158 25.5538 56.351 24.3822 57.9278 24.3822C58.8863 24.3822 59.717 24.8297 60.3777 25.8305L62.6786 24.5099C61.9114 22.8696 60.2499 21.8688 57.9497 21.8688C54.9458 21.8688 52.39 24.0843 52.39 27.4496C52.39 30.8149 54.8187 33.0312 57.9497 33.0312C60.2076 33.0312 61.7202 32.0085 62.7852 30.1981L60.5697 28.9841C59.9302 29.8791 59.2491 30.5178 57.9285 30.5178M86.5073 28.1526C86.3796 29.7718 86.0591 30.1338 85.5057 30.1338C85.1276 30.1338 84.9495 30.0922 84.6903 30.0243L84.7035 32.7582C84.7035 32.7582 85.0371 32.8604 85.6547 32.8604C87.9337 32.8604 88.7864 31.3902 88.9995 28.2592L89.255 24.5734H92.2794V32.7115H94.9636V22.1666H86.9541L86.5066 28.1526H86.5073ZM81.5564 26.0429C81.3009 24.7223 80.3001 23.9128 78.8087 23.9128C77.4027 23.9128 76.3377 24.8501 75.9537 26.0429H81.5564ZM78.8934 21.868C81.9185 21.868 84.0487 24.0624 84.0487 27.1511V28.0884H75.9106C76.0807 29.7075 77.2312 30.7295 78.808 30.7295C80.2351 30.7295 80.8316 30.1119 81.4922 29.2812L83.6223 30.3463C82.5573 32.1567 81.0871 33.0305 78.7649 33.0305C75.8252 33.0305 73.333 30.7937 73.333 27.4489C73.333 24.104 75.8259 21.868 78.8927 21.868M104.689 26.0429C104.434 24.7223 103.432 23.9128 101.942 23.9128C100.536 23.9128 99.4706 24.8501 99.0867 26.0429H104.689ZM102.027 21.868C105.052 21.868 107.182 24.0624 107.182 27.1511V28.0884H99.0443C99.2144 29.7075 100.365 30.7295 101.942 30.7295C103.369 30.7295 103.965 30.1119 104.626 29.2812L106.756 30.3463C105.691 32.1567 104.221 33.0305 101.899 33.0305C98.9589 33.0305 96.4667 30.7937 96.4667 27.4489C96.4667 24.104 98.9589 21.868 102.026 21.868M63.6196 24.5092H66.7725V32.7319H69.4567V24.5092H72.6096V22.1659H63.6196V24.5092ZM123.922 30.5171C125.498 30.5171 126.968 29.3885 126.968 27.4496C126.968 25.5107 125.498 24.3822 123.922 24.3822C122.346 24.3822 120.876 25.5115 120.876 27.4496C120.876 29.3878 122.346 30.5171 123.922 30.5171ZM123.922 21.868C126.819 21.868 129.695 23.7427 129.695 27.4496C129.695 31.1566 126.819 33.0312 123.922 33.0312C121.025 33.0312 118.149 31.1566 118.149 27.4496C118.149 23.7427 121.025 21.868 123.922 21.868ZM140.375 22.1644L137.461 29.5644L134.548 22.1644H131.039V32.7115H133.591V26.0341L136.419 32.7115H138.502L141.33 26.0341V32.7115H143.882V22.1644H140.373H140.375Z" fill="#1F1F1F" fill-opacity="0.8"/>
<path opacity="0.4" d="M17.9995 37.2871H3.10676C2.03074 37.2871 1.39783 36.3257 1.39783 35.4855C1.39783 34.9883 1.59931 34.5379 1.92562 34.2116L8.42481 27.7124L17.9995 37.2871Z" fill="#1F1F1F" fill-opacity="0.8"/>
<path d="M3.10655 37.2875C1.98162 37.2875 0.576373 36.3881 0.576373 34.6004V14.5787C0.576373 11.8733 0.438403 9.97017 2.37071 8.03786L9.62035 0.7875L22.4764 13.664L1.92541 34.212C1.5991 34.5383 1.39762 34.988 1.39762 35.4859C1.39762 36.3261 2.03053 37.2875 3.10655 37.2875Z" fill="#1F1F1F" fill-opacity="0.8"/>
</svg>
