<svg width="103" height="37" viewBox="0 0 103 37" fill="none" xmlns="http://www.w3.org/2000/svg">
<path d="M13.2807 11.3091C11.0685 13.9589 8.908 16.9806 7.48633 19.8773H9.55809C10.226 18.5259 12.2619 15.8223 13.2807 14.6445V11.3091Z" fill="#1F1F1F" fill-opacity="0.8"/>
<path d="M13.2807 17.0683C12.8948 17.5773 11.6116 19.3867 11.366 19.8781H13.2464C13.2807 19.8255 13.2807 17.0683 13.2807 17.0683Z" fill="#1F1F1F" fill-opacity="0.8"/>
<path d="M13.2808 6.49704H0.128845V19.8779H5.99348C7.94086 16.1906 10.5771 12.8365 13.2808 9.92217V6.49704Z" fill="#1F1F1F" fill-opacity="0.8"/>
<path d="M2.20111 34.3457H3.37594C4.39417 30.3961 6.39762 25.2001 8.76708 21.1763H6.80107C4.46441 25.3913 3.14889 29.9055 2.20111 34.3457Z" fill="#1F1F1F" fill-opacity="0.8"/>
<path d="M4.99255 34.3457H6.34475C7.78389 30.0625 9.59251 25.3385 12.5614 21.1763H10.5772C7.89004 25.4282 6.27373 30.1337 4.99255 34.3457Z" fill="#1F1F1F" fill-opacity="0.8"/>
<path d="M0.129028 34.3457H0.322892C0.813472 31.3446 2.83284 25.4282 5.27235 21.1763H0.129028V34.3457Z" fill="#1F1F1F" fill-opacity="0.8"/>
<path d="M7.76611 34.3458H9.75211C10.8569 32.0652 11.8757 29.6933 13.2807 27.3948V23.021C10.7527 26.6576 9.13519 30.9585 7.76611 34.3458Z" fill="#1F1F1F" fill-opacity="0.8"/>
<path d="M11.2958 34.3458H13.2459L13.2811 30.6961C12.3148 32.1003 11.8041 33.4349 11.2958 34.3458Z" fill="#1F1F1F" fill-opacity="0.8"/>
<path d="M23.2024 5.11007L22.6936 4.93445C21.7968 5.62083 20.7435 6.46227 20.7435 6.46227H19.1272C20.8314 4.46056 24.6407 1.61547 26.697 0.176525L26.2565 -6.86646e-05C22.3935 2.56422 18.2494 5.40931 14.5796 9.83287V13.0641C17.0208 10.1315 20.0575 7.56801 23.2024 5.11007Z" fill="#1F1F1F" fill-opacity="0.8"/>
<path d="M28.6625 5.21522L28.0852 5.07647C27.3636 5.44402 26.6433 5.95226 26.0122 6.46224H24.5188C25.0804 5.7776 27.7331 4.12694 27.7331 4.12694L27.1347 3.8638C22.0948 7.16415 18.1451 10.8175 14.5804 15.3299V18.261C18.4795 13.0649 22.5863 9.1482 28.6625 5.21522Z" fill="#1F1F1F" fill-opacity="0.8"/>
<path d="M18.5652 5.09307L18.0212 4.84759C18.0212 4.84759 16.7048 5.88386 16.0186 6.49747H14.5802V8.60533C15.5105 7.56887 16.7927 6.428 18.5652 5.09307Z" fill="#1F1F1F" fill-opacity="0.8"/>
<path d="M29.3473 10.9224L28.9609 10.4134C28.6101 10.6767 28.0485 11.0804 27.6972 11.3435V9.06024C28.2239 8.62147 29.4191 7.74317 30.3492 7.12955L29.7341 6.83031C24.361 10.2896 18.813 15.1356 15.5451 19.8778H18.9175C22.2364 15.9788 25.7142 13.3445 29.3473 10.9224Z" fill="#1F1F1F" fill-opacity="0.8"/>
<path d="M30.0672 14.5742C29.3653 14.9963 28.3814 15.8212 27.7478 16.2774L27.7321 15.2594C27.7321 15.2594 29.7162 13.7852 30.9283 13.0287L30.6449 12.5548C27.5724 14.5047 24.5529 17.0331 21.4988 19.877H24.6941C26.6421 18.0861 28.1876 16.4715 30.2085 15.0838L30.0672 14.5742Z" fill="#1F1F1F" fill-opacity="0.8"/>
<path d="M29.663 17.9642L29.2252 17.5255C28.4326 18.2819 27.5033 19.1769 26.7321 19.878H27.8202C28.2246 19.3164 29.0311 18.4738 29.663 17.9642Z" fill="#1F1F1F" fill-opacity="0.8"/>
<path d="M14.5626 21.1772L14.5803 25.3912C15.4762 24.1118 16.4231 22.7225 17.8447 21.1772H14.5626Z" fill="#1F1F1F" fill-opacity="0.8"/>
<path d="M14.58 28.5338V34.2766C16.6167 29.9749 19.8819 24.7937 23.5354 21.1772H20.3567C18.2673 23.3361 15.9322 26.4812 14.58 28.5338Z" fill="#1F1F1F" fill-opacity="0.8"/>
<path d="M25.5719 21.1779C21.7977 25.4288 18.6006 29.6945 16.6507 34.3473H27.7324V21.1779C27.7491 21.1263 25.5719 21.1779 25.5719 21.1779Z" fill="#1F1F1F" fill-opacity="0.8"/>
<path d="M39.319 28.3024V19.7378C42.819 19.9241 44.6462 18.795 44.6142 15.1566V10.3269C44.7069 7.34834 43.0965 5.96709 39.473 5.96709H36.0378V28.3024H39.319ZM39.319 8.63178C40.6223 8.53679 41.3315 8.6939 41.3315 10.765V16.0681C41.2388 17.1038 40.278 17.0722 39.319 17.0722V8.63178Z" fill="#1F1F1F" fill-opacity="0.8"/>
<path d="M48.0679 5.96709C48.0679 5.96709 49.585 13.121 49.8641 15.4726H49.9239C50.0181 13.714 51.6605 5.96709 51.6605 5.96709H54.7263L49.3989 28.3024H46.2718L48.2237 19.9588L44.6927 5.96709H48.0679Z" fill="#1F1F1F" fill-opacity="0.8"/>
<path d="M60.3053 14.215V9.66765C60.3053 8.53602 59.9663 8.28756 59.3149 8.28756C58.6327 8.28756 58.2947 8.53602 58.2947 9.66765V24.7837C58.2947 25.9175 58.6327 26.1663 59.3149 26.1663C59.9663 26.1663 60.3053 25.9175 60.3053 24.7837V19.9582H63.5856V25.0713C63.5856 27.9878 61.3282 28.8359 59.2839 28.8359C57.2732 28.8359 55.0118 27.9878 55.0118 25.0713V9.38532C55.0118 6.46572 57.2732 5.61956 59.2839 5.61956C61.3282 5.61956 63.5856 6.46572 63.5856 9.38532V14.215H60.3053Z" fill="#1F1F1F" fill-opacity="0.8"/>
<path d="M64.5471 28.3024H67.5206L68.2321 22.2453H70.5535L71.171 28.3024H74.4864L71.9803 5.96709H67.0542L64.5471 28.3024ZM68.541 19.3289L69.3489 10.0436H69.5658L70.2446 19.3289H68.541Z" fill="#1F1F1F" fill-opacity="0.8"/>
<path d="M75.9122 28.3028V5.96709H83.2173V8.88471H79.1925V28.3028H75.9122Z" fill="#1F1F1F" fill-opacity="0.8"/>
<path d="M87.7367 28.3024V19.7378C91.2364 19.9241 93.0639 18.795 93.031 15.1566V10.3269C93.1234 7.34834 91.5174 5.96709 87.8923 5.96709H84.4564V28.3024H87.7367ZM87.7367 8.63178C89.0391 8.53679 89.7508 8.6939 89.7508 10.765V16.0681C89.6546 17.1038 88.6983 17.0722 87.7367 17.0722V8.63178Z" fill="#1F1F1F" fill-opacity="0.8"/>
<path d="M94.2444 24.9776C94.2444 27.8919 96.5068 28.7392 98.5165 28.7392C100.562 28.7392 102.821 27.8919 102.821 24.9776V9.28944C102.821 6.371 100.562 5.52599 98.5165 5.52599C96.5068 5.52599 94.2444 6.371 94.2444 9.28944V24.9776ZM97.5254 9.57078C97.5254 8.44543 97.8679 8.19251 98.5504 8.19251C99.1998 8.19251 99.5381 8.44543 99.5381 9.57078V24.6933C99.5381 25.8216 99.1998 26.0734 98.5504 26.0734C97.8679 26.0734 97.5254 25.8216 97.5254 24.6933V9.57078Z" fill="#1F1F1F" fill-opacity="0.8"/>
<path d="M36.3929 32.0281V35.2039H36.9273V32.4723H38.4581V32.0281H36.3929ZM41.636 32.4183C42.4046 32.4183 42.4586 33.2347 42.4586 33.7571C42.4586 34.6036 41.9542 34.8317 41.618 34.8317C41.0357 34.8317 40.7656 34.2974 40.7656 33.6069C40.7656 33.1927 40.8076 32.4183 41.636 32.4183ZM40.2312 36.4586H40.7656V34.8317C40.9156 35.0899 41.1978 35.2939 41.624 35.2939C42.7047 35.2939 43.0049 34.2793 43.0049 33.523C43.0049 32.6223 42.5306 31.9379 41.6901 31.9379C41.1378 31.9379 40.9035 32.2202 40.7294 32.4783V32.0281H40.2312V36.4586ZM44.6098 32.0281L45.7865 35.288C45.5283 35.9424 45.4923 36.0203 45.2222 36.0203C45.078 36.0203 44.964 35.9904 44.8979 35.9663V36.4527C44.982 36.4766 45.0481 36.5007 45.1261 36.5007C45.7385 36.5007 45.8766 36.3266 46.1107 35.7803C46.549 34.7597 47.1372 33.0667 47.5094 32.0281H46.9211L46.0747 34.6156H46.0626L45.2161 32.0281H44.6098ZM49.2885 32.0281V35.2039H49.8229V32.4723H51.3057V35.2039H51.84V32.0281H49.2885ZM53.9432 32.0281V35.2039H54.4776V32.4723H55.9605V35.2039H56.4947V32.0281H53.9432ZM59.0722 32.9947C59.1023 32.7545 59.1863 32.3823 59.7926 32.3823C60.297 32.3823 60.5311 32.5443 60.5311 32.8926C60.5311 33.2227 60.4711 33.2887 59.6365 33.3548C58.5199 33.4389 58.4238 33.9971 58.4238 34.3754C58.4238 34.9277 58.832 35.2939 59.4145 35.2939C60.0328 35.2939 60.351 34.9997 60.5611 34.7777C60.5851 35.0177 60.6512 35.2639 61.1255 35.2639C61.2456 35.2639 61.3235 35.2279 61.4136 35.2039V34.8137C61.3536 34.8258 61.2875 34.8377 61.2395 34.8377C61.1314 34.8377 61.0653 34.7716 61.0653 34.6396V32.8265C61.0653 32.0101 60.1409 31.9379 59.8886 31.9379C59.1023 31.9379 58.5799 32.2321 58.5799 32.9947H59.0722ZM60.5311 34.1053C60.5311 34.5315 60.0508 34.8497 59.5524 34.8497C59.1563 34.8497 58.9701 34.6396 58.9701 34.2913C58.9701 33.8891 59.3904 33.817 59.6545 33.781C60.315 33.6969 60.447 33.649 60.5311 33.583V34.1053Z" fill="#1F1F1F" fill-opacity="0.8"/>
<path d="M69.6561 35.2032L68.0411 33.5282L69.5839 32.0273H68.9056L67.5429 33.4081V32.0273H67.0084V35.2032H67.5429V33.7623L68.8935 35.2032H69.6561ZM71.0808 33.6123C71.0808 34.4287 71.5371 35.2932 72.5517 35.2932C73.5662 35.2932 74.0225 34.4287 74.0225 33.6123C74.0225 32.7957 73.5662 31.9371 72.5517 31.9371C71.5371 31.9371 71.0808 32.7957 71.0808 33.6123ZM71.6271 33.6123C71.6271 33.1859 71.7893 32.3995 72.5517 32.3995C73.3141 32.3995 73.4762 33.1859 73.4762 33.6123C73.4762 34.0385 73.3141 34.831 72.5517 34.831C71.7893 34.831 71.6271 34.0385 71.6271 33.6123ZM75.9518 32.0273V35.2032H76.4741V33.36C76.4741 33.0238 76.4441 32.6756 76.4441 32.6756H76.4862L77.4827 35.2032H77.8669L78.8636 32.6756H78.9055C78.9055 32.6756 78.8755 33.0238 78.8755 33.36V35.2032H79.3978V32.0273H78.6594L77.6807 34.5187L76.7023 32.0273H75.9518ZM81.501 32.0273V35.2032H82.0354V32.4716H83.5183V35.2032H84.0526V32.0273H81.501ZM86.63 32.9939C86.6601 32.7537 86.7442 32.3815 87.3505 32.3815C87.8548 32.3815 88.0889 32.5436 88.0889 32.8918C88.0889 33.2219 88.0289 33.288 87.1943 33.3541C86.0778 33.4381 85.9816 33.9964 85.9816 34.3747C85.9816 34.9269 86.3898 35.2932 86.9723 35.2932C87.5907 35.2932 87.9088 34.999 88.119 34.7769C88.1429 35.017 88.209 35.2631 88.6833 35.2631C88.8034 35.2631 88.8814 35.2271 88.9714 35.2032V34.8129C88.9114 34.825 88.8454 34.8369 88.7973 34.8369C88.6893 34.8369 88.6232 34.7708 88.6232 34.6388V32.8257C88.6232 32.0093 87.6987 31.9371 87.4464 31.9371C86.6601 31.9371 86.1377 32.2314 86.1377 32.9939H86.63ZM88.0889 34.1046C88.0889 34.5308 87.6087 34.849 87.1103 34.849C86.7141 34.849 86.5279 34.6388 86.5279 34.2906C86.5279 33.8883 86.9482 33.8163 87.2124 33.7803C87.8728 33.6962 88.0048 33.6483 88.0889 33.5822V34.1046ZM91.3809 32.0273H90.8464V35.2032H91.3809V33.7502H92.8637V35.2032H93.398V32.0273H92.8637V33.306H91.3809V32.0273ZM96.0356 32.0273H95.5012V35.2032H96.0595L97.6144 32.8257H97.6265V35.2032H98.1607V32.0273H97.6025L96.0475 34.4047H96.0356V32.0273ZM102.497 30.8445H102.077C102.065 31.1086 101.957 31.3008 101.591 31.3008C101.225 31.3008 101.117 31.1086 101.104 30.8445H100.684C100.684 31.1148 100.792 31.673 101.591 31.673C102.389 31.673 102.497 31.1148 102.497 30.8445ZM102.923 35.2032V32.0273H102.365L100.81 34.4047H100.798V32.0273H100.264V35.2032H100.822L102.377 32.8257H102.389V35.2032H102.923Z" fill="#1F1F1F" fill-opacity="0.8"/>
</svg>
