<svg width="128" height="26" viewBox="0 0 128 26" fill="none" xmlns="http://www.w3.org/2000/svg">
<path d="M100.826 21.25L101.054 24.9803C100.443 25.2858 98.8834 25.4363 98.0808 25.4363C94.0587 25.4363 91.2086 22.9145 91.0946 18.4865H95.331C95.3963 19.3227 95.7827 20.1012 96.4092 20.6588C97.0357 21.2165 97.8537 21.51 98.6918 21.478C99.4084 21.4624 100.122 21.3861 100.826 21.25ZM43.2493 25.1718H47.472V1.5817H43.2493V25.1718ZM80.515 10.2553C82.5306 10.2553 84.2042 11.2448 84.9657 12.7269L88.5409 10.7113C87.1728 7.97515 84.1312 6.18298 80.515 6.18298C79.2333 6.15626 77.9595 6.38901 76.77 6.86723C75.5806 7.34546 74.5002 8.05928 73.5937 8.96577C72.6872 9.87227 71.9734 10.9527 71.4952 12.1422C71.017 13.3316 70.7842 14.6055 70.8109 15.8872C70.8109 21.4051 75.0382 25.5503 80.5515 25.5503C83.967 25.5503 86.9083 23.9907 88.5272 21.5191L84.9885 19.3484C84.4799 20.0396 83.8093 20.5953 83.0356 20.9666C82.2619 21.3379 81.4089 21.5136 80.5515 21.478C79.8174 21.4868 79.0891 21.3477 78.4099 21.0691C77.7307 20.7906 77.1145 20.3782 76.5979 19.8565C76.0814 19.3349 75.6751 18.7146 75.4032 18.0327C75.1313 17.3508 74.9995 16.6211 75.0154 15.8872C75.0154 12.695 77.3365 10.2553 80.5332 10.2553M40.8415 15.0526C40.8514 13.8789 40.6263 12.7151 40.1795 11.6297C39.7327 10.5444 39.0732 9.55939 38.2398 8.73283C37.4065 7.90627 36.4161 7.25485 35.3271 6.81693C34.2382 6.37902 33.0726 6.16347 31.899 6.18298C30.6377 6.16955 29.3864 6.40809 28.2184 6.8846C27.0505 7.36111 25.9895 8.066 25.0976 8.95795C24.2056 9.8499 23.5007 10.9109 23.0242 12.0789C22.5477 13.2468 22.3092 14.4982 22.3226 15.7595C22.2995 17.0396 22.5325 18.3115 23.0079 19.5003C23.4832 20.6892 24.1914 21.771 25.0908 22.6823C25.9901 23.5936 27.0626 24.3159 28.245 24.8069C29.4275 25.2978 30.6962 25.5475 31.9765 25.5412C35.8207 25.5412 38.9399 24.0181 40.3079 21.5099L36.9243 19.3393C36.0487 20.7849 34.1471 21.6969 32.054 21.6969C29.0489 21.6969 26.9922 19.8728 26.5362 16.8676H40.6728C40.7763 16.2652 40.8266 15.6548 40.8232 15.0435M26.6776 13.6435C27.3251 11.2084 29.1127 9.68524 31.6619 9.68524C34.211 9.68524 36.1536 11.3224 36.3816 13.6435H26.6776ZM68.4077 15.0526C68.4176 13.8789 68.1925 12.7151 67.7457 11.6297C67.2989 10.5444 66.6394 9.55939 65.8061 8.73283C64.9727 7.90627 63.9824 7.25485 62.8934 6.81693C61.8044 6.37902 60.6388 6.16347 59.4652 6.18298C58.2039 6.16955 56.9526 6.40809 55.7847 6.8846C54.6168 7.36111 53.5557 8.066 52.6638 8.95795C51.7719 9.8499 51.067 10.9109 50.5905 12.0789C50.114 13.2468 49.8754 14.4982 49.8889 15.7595C49.8651 17.0398 50.0977 18.3119 50.5728 19.5011C51.048 20.6902 51.7561 21.7723 52.6556 22.6837C53.5551 23.5951 54.6278 24.3174 55.8105 24.8081C56.9933 25.2989 58.2623 25.5481 59.5428 25.5412C63.387 25.5412 66.5061 24.0181 67.8742 21.5099L64.486 19.3393C63.615 20.7849 61.7088 21.6969 59.6203 21.6969C56.6106 21.6969 54.5585 19.8728 54.1025 16.8676H68.239C68.3439 16.2653 68.3958 15.6549 68.394 15.0435M54.2575 13.639C54.9051 11.2038 56.6926 9.68068 59.2418 9.68068C61.7909 9.68068 63.7335 11.3178 63.9616 13.639H54.2575ZM121.21 15.0526C121.219 13.8793 120.994 12.716 120.547 11.6312C120.1 10.5463 119.44 9.56187 118.607 8.7358C117.773 7.90973 116.783 7.25871 115.695 6.82108C114.606 6.38344 113.441 6.16804 112.267 6.18754C111.006 6.17473 109.755 6.41369 108.588 6.89042C107.42 7.36715 106.359 8.07207 105.467 8.9639C104.576 9.85572 103.871 10.9165 103.394 12.0842C102.917 13.2518 102.678 14.5029 102.691 15.764C102.669 17.0438 102.902 18.3152 103.378 19.5035C103.853 20.6918 104.562 21.7731 105.461 22.6839C106.36 23.5947 107.432 24.3166 108.615 24.8073C109.797 25.298 111.065 25.5475 112.345 25.5412C116.185 25.5412 119.308 24.0181 120.676 21.5099L117.288 19.3393C116.413 20.7849 114.511 21.6969 112.418 21.6969C109.413 21.6969 107.361 19.8728 106.905 16.8676H121.041C121.146 16.2653 121.198 15.6549 121.196 15.0435M107.06 13.639C107.707 11.2038 109.495 9.68068 112.044 9.68068C114.593 9.68068 116.531 11.3178 116.764 13.639H107.06ZM123.618 25.1673H127.84V1.5817H123.618V25.1673ZM14.7117 20.8031C13.6123 21.4643 12.3459 21.7951 11.0636 21.7562C9.6444 21.7886 8.25226 21.3651 7.09164 20.5477C5.96552 19.7242 5.17901 18.5176 4.87996 17.1549L0.684601 17.7888C0.905595 19.2855 1.51045 20.6995 2.44027 21.893C3.37627 23.0755 4.59695 24.0012 5.98808 24.5836C7.5236 25.2342 9.17709 25.5603 10.8447 25.5412C12.4772 25.5581 14.0978 25.2625 15.6192 24.6702C17.0036 24.1428 18.2134 23.2394 19.1123 22.0617C19.8877 21.0245 20.3369 19.7799 20.4028 18.4865H16.212C16.1689 18.9655 16.0098 19.4268 15.7484 19.8304C15.487 20.2341 15.1312 20.5679 14.7117 20.8031Z" fill="#1F1F1F" fill-opacity="0.8"/>
<path opacity="0.5" d="M95.3034 16.8779H91.0807V10.5985V1.58289H95.3034V6.56723H100.862V10.5985H95.3034V16.8779ZM19.3811 14.2923C18.755 13.4479 17.9314 12.7699 16.9825 12.3177C15.9798 11.8617 14.9411 11.4895 13.877 11.205L9.48098 9.94637C8.55333 9.74014 7.66593 9.38271 6.85432 8.88839C6.53557 8.68541 6.27616 8.40176 6.10238 8.06621C5.9286 7.73065 5.84662 7.35511 5.86476 6.97765C5.86256 6.35413 6.09352 5.75231 6.5123 5.29036C6.9834 4.7774 7.57627 4.39156 8.23605 4.16854C8.97331 3.90125 9.75527 3.77892 10.5389 3.80828C11.7896 3.80951 13.0072 4.21058 14.0138 4.9529C15.0014 5.67293 15.6832 6.7371 15.9245 7.9353L20.2521 7.21934C19.9404 5.79876 19.3053 4.4692 18.3961 3.33402C17.5138 2.25878 16.3776 1.42029 15.09 0.89429C13.6668 0.312638 12.1448 0.010717 10.6073 0.00504269C9.03955 -0.0414192 7.4787 0.231656 6.0198 0.807645C4.74673 1.30989 3.64058 2.16006 2.82768 3.26105C2.0197 4.39951 1.60213 5.76902 1.63748 7.16462C1.63748 9.05256 2.16038 10.4571 3.20618 11.3783C4.33122 12.3413 5.66183 13.0339 7.09601 13.403L13.4529 15.2819C14.2343 15.4858 14.9543 15.8771 15.5506 16.4219C15.6789 16.5615 15.792 16.7144 15.888 16.8779H20.3615C20.2744 15.9433 19.9356 15.0497 19.3811 14.2923Z" fill="#1F1F1F" fill-opacity="0.8"/>
</svg>
