<svg width="167" height="46" viewBox="0 0 167 46" fill="none" xmlns="http://www.w3.org/2000/svg">
<path opacity="0.5" d="M18.9504 9.88961C21.8825 17.3299 17.1018 22.1057 12.3398 26.8893C7.90788 31.7767 4.004 36.857 11.8558 46C8.92279 38.5606 13.7044 33.7839 18.4626 29.0052C22.8984 24.1071 26.8023 19.0335 18.9504 9.88961Z" fill="#1F1F1F" fill-opacity="0.8"/>
<path d="M11.8558 0.375126C14.7928 7.8184 10.0141 12.5912 5.24815 17.3718C0.817221 22.2632 -3.08568 27.3435 4.7691 36.4865C1.83409 29.0412 6.61475 24.2695 11.3758 19.4888C15.8097 14.5965 19.7087 9.51807 11.8558 0.375126Z" fill="#1F1F1F" fill-opacity="0.8"/>
<path d="M132.35 29.8414V45.0493H139.011V39.482H146.329V36.1532H139.011V33.1702H153.529V45.0493H160.19V33.1702H166.225V29.8414H132.35Z" fill="#1F1F1F" fill-opacity="0.8"/>
<path d="M118.059 41.7489V39.1127H126.745V35.7809H118.059V33.1702H129.215V29.8414H111.399V45.0493H129.352V41.7489H118.059Z" fill="#1F1F1F" fill-opacity="0.8"/>
<path opacity="0.5" d="M47.809 29.8414H29.3515V33.1702H35.2499V45.0493H41.9105V33.1702H47.809V29.8414Z" fill="#1F1F1F" fill-opacity="0.8"/>
<path opacity="0.5" d="M52.8516 39.287L55.9335 33.4004L58.8833 39.287H52.8516ZM60.9591 29.8414H53.8195L45.5062 45.0493H49.8353L51.2019 42.4385H60.5369L61.8996 45.0493H69.2763L60.9591 29.8414Z" fill="#1F1F1F" fill-opacity="0.8"/>
<path d="M103.225 29.8414V37.4443L92.5728 29.8414H87.4033V45.0493H91.9625V36.6822L102.901 45.0493H107.784V29.8414H103.225Z" fill="#1F1F1F" fill-opacity="0.8"/>
<path opacity="0.5" d="M85.1406 29.8414H67.0701V33.1702H72.9676V45.0493H79.6291V33.1702H85.1406V29.8414Z" fill="#1F1F1F" fill-opacity="0.8"/>
</svg>
