<svg width="207" height="35" viewBox="0 0 207 35" fill="none" xmlns="http://www.w3.org/2000/svg">
<g opacity="0.5">
<path d="M188.969 27.5006C188.969 27.5006 189.018 27.8141 188.65 27.8141C188.281 27.8141 184.962 27.8361 184.145 27.8361C183.829 27.8361 183.579 27.8279 183.452 27.4731L183.419 7.2908C183.419 7.2908 183.4 6.8398 183.92 6.8398C184.365 6.8398 188.32 6.82055 189.433 6.81505C189.615 6.81505 189.783 6.90855 189.876 7.0653L194.84 15.2933L199.828 7.09005C199.922 6.93605 200.09 6.84255 200.268 6.84255H205.851C206.321 6.84255 206.266 7.29355 206.266 7.29355L206.357 27.4759C206.357 27.4759 206.346 27.8169 206.076 27.8169C205.807 27.8169 201.77 27.8389 201.294 27.8389C200.967 27.8389 200.843 27.6711 200.843 27.5034V14.5013L196.842 21.3764C196.748 21.5386 196.575 21.6376 196.388 21.6376H193.374C193.187 21.6376 193.011 21.5359 192.918 21.3736L188.966 14.5013V27.5006H188.969Z" fill="#1F1F1F" fill-opacity="0.8"/>
<path d="M156.054 6.84846C156.34 6.84846 156.351 7.06571 156.351 7.06571C156.529 7.62122 155.641 11.2292 155.41 12.0212C154.918 13.7152 154.354 15.3267 153.199 16.6743C152.872 17.0565 152.514 17.3535 152.314 17.5075C152.22 17.579 152.193 17.7055 152.248 17.81L157.236 27.336C157.321 27.4983 157.203 27.6908 157.022 27.6908L151.315 27.6825C151.225 27.6825 151.142 27.633 151.101 27.5533L147.091 19.9468C146.995 19.7625 146.803 19.647 146.594 19.647H143.503C143.503 19.647 143.305 19.669 143.305 19.845V27.4405C143.305 27.5753 143.197 27.6825 143.063 27.6825L137.983 27.6963C137.849 27.6963 137.741 27.589 137.741 27.4543L137.656 7.20322C137.656 7.20322 137.634 6.96946 137.989 6.91171C138.272 6.86771 142.232 6.79896 142.716 6.84021C143.2 6.88146 143.305 7.00796 143.305 7.17572V14.433C143.305 14.62 143.503 14.631 143.503 14.631C143.503 14.631 145.749 14.6172 146.352 14.631C147.287 14.653 147.955 14.2542 148.365 13.949C150.097 12.662 150.301 9.26022 150.73 7.34072C150.796 6.96671 150.985 6.84571 151.291 6.84571H156.054V6.84846Z" fill="#1F1F1F" fill-opacity="0.8"/>
<path d="M167.164 6.48779C161.218 7.15604 157.643 12.7936 158.105 18.5081C159.192 31.9474 178.689 31.1334 179.605 18.5301C180.174 10.6816 175.037 5.59954 167.167 6.48779H167.164ZM166.762 22.9163C162.588 21.2333 163.022 12.0566 168.085 11.3691C176.698 10.1976 175.139 26.2934 166.762 22.9163Z" fill="#1F1F1F" fill-opacity="0.8"/>
</g>
<path d="M124.228 11.8257V14.6747C124.228 14.8727 124.387 15.0322 124.585 15.0322H132.489C132.772 15.0322 132.813 15.3622 132.813 15.3622C132.813 15.3622 132.843 17.851 132.813 18.7997C132.808 18.9867 132.758 19.2672 132.42 19.2672H124.362C124.23 19.2672 124.23 19.4212 124.23 19.4212V23.01C124.23 23.1227 124.321 23.2135 124.434 23.2135H133.666C133.666 23.2135 133.996 23.1915 133.996 23.4857V27.4953C133.996 27.608 133.905 27.6988 133.792 27.6988H118.761C118.648 27.6988 118.557 27.608 118.557 27.4953V7.26344C118.557 7.20844 118.579 7.15619 118.618 7.11769L118.763 6.97469C118.802 6.93619 118.851 6.91694 118.904 6.91694C120.064 6.91419 133.107 6.87569 133.374 6.87569C133.641 6.87569 133.666 7.11219 133.666 7.11219C133.767 7.32119 133.798 10.635 133.729 11.0035C133.701 11.1492 133.743 11.4682 133.402 11.4682H124.588C124.39 11.4682 124.23 11.6277 124.23 11.8257H124.228Z" fill="#1F1F1F" fill-opacity="0.8"/>
<path d="M109.757 11.8943L105.951 11.952C105.951 11.952 105.674 17.2898 105.104 19.9161C104.464 22.8723 103.141 26.1338 100.152 27.3686C99.3953 27.6821 96.3125 28.5291 96.263 27.5666C96.2492 27.2916 96.1282 24.0301 96.2217 23.7028C96.406 23.0703 96.6178 23.4388 97.55 23.1831C100.039 22.4983 100.468 16.3466 100.553 14.3115C100.608 12.9695 100.655 9.73553 100.677 8.05803C100.685 7.47227 101.161 7.00477 101.744 7.00202L114.523 6.97727C114.878 6.97727 115.167 7.26327 115.164 7.61802L115.131 27.5721C115.026 27.7041 114.886 27.7068 114.74 27.7068C113.437 27.7068 111.737 27.7068 110.503 27.7068C110.23 27.7068 110.041 27.6326 109.942 27.3438L109.752 11.8943H109.757Z" fill="#1F1F1F" fill-opacity="0.8"/>
<path d="M84.0557 11.8257V14.6747C84.0557 14.8727 84.2152 15.0322 84.4132 15.0322H92.3168C92.6 15.0322 92.6413 15.3622 92.6413 15.3622C92.6413 15.3622 92.6715 17.851 92.6413 18.7997C92.6358 18.9867 92.5863 19.2672 92.248 19.2672H84.1905C84.0585 19.2672 84.0585 19.4212 84.0585 19.4212V23.01C84.0585 23.1227 84.1492 23.2135 84.262 23.2135H93.4938C93.4938 23.2135 93.8238 23.1915 93.8238 23.4857V27.4953C93.8238 27.608 93.733 27.6988 93.6203 27.6988H78.5887C78.476 27.6988 78.3852 27.608 78.3852 27.4953V7.26344C78.3852 7.20844 78.4072 7.15619 78.4457 7.11769L78.5915 6.97469C78.63 6.93619 78.6795 6.91694 78.7317 6.91694C79.8922 6.91419 92.9355 6.87569 93.2023 6.87569C93.469 6.87569 93.4938 7.11219 93.4938 7.11219C93.5955 7.32119 93.6258 10.635 93.557 11.0035C93.5295 11.1492 93.5708 11.4682 93.2298 11.4682H84.416C84.218 11.4682 84.0585 11.6277 84.0585 11.8257H84.0557Z" fill="#1F1F1F" fill-opacity="0.8"/>
<path d="M57.1384 7.31302C57.1384 7.31302 57.1632 6.91152 57.5977 6.91152L75.1207 6.87302L75.4122 7.10952C75.514 7.31852 75.547 10.8853 75.4755 11.2648C75.448 11.4105 75.4947 11.7295 75.1482 11.7295H69.277L69.145 27.5998C69.0377 27.7951 68.7435 27.8308 68.551 27.8308C67.0907 27.8308 65.0035 27.8391 64.1867 27.8391C63.37 27.8391 63.4634 27.2451 63.4634 27.2451L63.3369 11.7323C63.3369 11.7323 57.8809 11.7323 57.5784 11.7323C57.1577 11.7323 57.2017 11.3253 57.2017 11.3253" fill="#1F1F1F" fill-opacity="0.8"/>
<path d="M37.6988 7.31302C37.6988 7.31302 37.7235 6.91152 38.158 6.91152L55.6811 6.87302L55.9726 7.10952C56.0744 7.31852 56.1074 10.8853 56.0359 11.2648C56.0084 11.4105 56.0359 11.7295 55.7086 11.7295H49.8373L49.7053 27.5998C49.5981 27.7951 49.3038 27.8308 49.1113 27.8308C47.6511 27.8308 45.5638 27.8391 44.7471 27.8391C43.9303 27.8391 44.0238 27.2451 44.0238 27.2451L43.8973 11.7323H38.1663C37.729 11.7323 37.762 11.339 37.762 11.339" fill="#1F1F1F" fill-opacity="0.8"/>
<path d="M39.2854 26.7409C37.0524 20.1409 31.8054 7.07008 31.8054 7.07008C31.8054 7.07008 31.7394 6.84183 31.3572 6.84183H25.7306C25.3649 6.84183 25.2934 7.10858 25.2934 7.10858L17.1424 27.4999L17.3486 27.8299H22.3646L22.7359 27.5302L24.4106 23.1439H32.1987L33.9779 27.8299H39.3872C39.7364 27.6044 39.4064 27.0874 39.2882 26.7409H39.2854ZM25.9891 18.5926L28.2992 11.7286L30.6064 18.5926H25.9864H25.9891Z" fill="#1F1F1F" fill-opacity="0.8"/>
<path d="M0.840332 7.31302C0.840332 7.31302 0.865082 6.91152 1.29958 6.91152L18.8226 6.87302L19.1141 7.10952C19.2159 7.31852 19.2489 10.8853 19.1774 11.2648C19.1499 11.4105 19.1966 11.7295 18.8501 11.7295H12.9789L12.8469 27.5998C12.7396 27.7951 12.4454 27.8308 12.2529 27.8308C10.7926 27.8308 8.70536 27.8391 7.88861 27.8391C7.07185 27.8391 7.16535 27.2451 7.16535 27.2451L7.03885 11.7323C7.03885 11.7323 1.58283 11.7323 1.28033 11.7323C0.859582 11.7323 0.903582 11.3253 0.903582 11.3253" fill="#1F1F1F" fill-opacity="0.8"/>
</svg>
