<svg width="102" height="32" viewBox="0 0 102 32" fill="none" xmlns="http://www.w3.org/2000/svg">
<path d="M50.6594 14.1249C49.9617 13.8565 49.0492 13.7761 48.0562 13.7761H42.5273V12.0584H52.0283V9.1062H38.6357V21.8813H47.7072C48.9687 21.8813 49.9078 21.774 50.6058 21.5055C52.082 20.9418 53.075 19.5731 53.075 17.775C53.075 15.9501 52.1356 14.6886 50.6594 14.1249ZM48.7271 18.5533C48.5124 18.6339 48.2171 18.6606 47.8413 18.6606H42.5273V16.6209H47.8413C48.2709 16.6209 48.6196 16.6479 48.8881 16.782C49.2101 16.9431 49.3712 17.2383 49.3712 17.6139C49.3712 17.9896 49.1834 18.3922 48.7271 18.5533Z" fill="#1F1F1F" fill-opacity="0.8"/>
<path d="M63.9866 9.1062H58.2969L53.0634 21.8813H57.465L58.1895 20.0294H64.0939L64.8455 21.8813H69.2203L63.9866 9.1062ZM59.1557 17.2113L61.0077 12.0584H61.3028L63.1547 17.2113H59.1557Z" fill="#1F1F1F" fill-opacity="0.8"/>
<path d="M74.2294 17.131V21.8814H70.338V9.1062H74.2294V13.7761H80.4829V9.1062H84.3745V21.8814H80.4829V17.131H74.2294Z" fill="#1F1F1F" fill-opacity="0.8"/>
<path d="M90.5343 17.0505V21.8814H86.6427V9.1062H90.5343V13.9103H91.6079L96.3047 9.1062H101.189L94.9627 15.2254L101.431 21.8814H96.2509L91.6079 17.0505H90.5343Z" fill="#1F1F1F" fill-opacity="0.8"/>
<path opacity="0.5" d="M31.3353 16.4973C31.3353 20.4972 29.2015 24.1934 25.7377 26.1936L15.8236 31.9191L5.90857 26.1936C2.44464 24.1934 0.310979 20.4972 0.310913 16.4973V0.893753H31.3353V16.4973ZM8.82556 13.9592C9.4892 13.2098 10.696 12.7023 12.0756 12.7023H13.5746V18.3439C13.5746 19.8446 13.1668 21.1584 12.5619 21.8811H19.0824C18.4787 21.1576 18.0717 19.8456 18.0717 18.3469V12.7023H19.5717C20.951 12.7024 22.157 13.21 22.8207 13.9592V9.10664H8.82556V13.9592Z" fill="#1F1F1F" fill-opacity="0.8"/>
</svg>
