<svg width="138" height="31" viewBox="0 0 138 31" fill="none" xmlns="http://www.w3.org/2000/svg">
<path d="M0.16687 3.86736H3.54421V18.3157H7.48912V3.86736H10.6422V0.490013H0.16687V3.86736Z" fill="#1F1F1F" fill-opacity="0.8"/>
<path d="M25.0378 14.9383H19.3552V10.7447H24.4422V7.36732H19.3552V3.86736H25.0378V0.490013H15.0599V18.3157H25.0378V14.9383Z" fill="#1F1F1F" fill-opacity="0.8"/>
<path d="M41.0237 18.3157V0.490013H29.627V18.3157H33.9222V3.86736H36.7285V18.3157H41.0237Z" fill="#1F1F1F" fill-opacity="0.8"/>
<path d="M47.7467 8.90804C47.7467 14.419 47.6731 15.1407 46.4819 15.1407C46.058 15.1407 45.6376 15.0882 45.4379 14.9901V17.9925C46.1806 18.3183 46.8252 18.5145 47.7467 18.5145C50.651 18.5145 51.8948 16.7523 51.8948 10.0011V3.86655H54.7221V18.3148H59.0173V0.489204H47.7467V8.90453V8.90804Z" fill="#1F1F1F" fill-opacity="0.8"/>
<path d="M71.3001 13.8693C71.3001 14.9379 70.5328 15.4599 69.8111 15.4599C69.0894 15.4599 68.3186 14.9379 68.3186 13.8693V4.83739C68.3186 3.82139 69.0683 3.37294 69.8111 3.37294C70.5538 3.37294 71.3001 3.82139 71.3001 4.83739V13.8693ZM69.8391 0.0936966C65.7926 0.0936966 64.0269 2.30438 64.0269 5.11066V13.1301C64.0269 16.6791 65.8381 18.7391 69.8111 18.7391C73.784 18.7391 75.5988 16.6791 75.5988 13.1301V5.13519C75.5988 2.35343 73.8856 0.0936966 69.8391 0.0936966Z" fill="#1F1F1F" fill-opacity="0.8"/>
<path d="M86.2455 0.0936966C82.1745 0.0936966 80.4368 2.32541 80.4368 5.13168V12.8989C80.4368 16.9944 82.3006 18.7321 86.2455 18.7321C90.1904 18.7321 92.0543 16.9699 92.0543 12.9234V11.2592H87.759V13.6171C87.759 14.9554 87.1144 15.4529 86.1965 15.4529C85.2786 15.4529 84.732 14.9064 84.732 13.5645V4.68674C84.732 3.76883 85.4748 3.36944 86.1965 3.36944C86.8656 3.36944 87.759 3.81788 87.759 4.76031V6.37541H92.0543V5.15621C92.0543 2.37796 90.2675 0.0936966 86.2455 0.0936966Z" fill="#1F1F1F" fill-opacity="0.8"/>
<path d="M107.042 14.9383H101.359V10.7447H106.446V7.36732H101.359V3.86736H107.042V0.490013H97.064V18.3157H107.042V14.9383Z" fill="#1F1F1F" fill-opacity="0.8"/>
<path d="M110.79 3.86736H114.168V18.3157H118.113V3.86736H121.266V0.490013H110.79V3.86736Z" fill="#1F1F1F" fill-opacity="0.8"/>
<path d="M130.721 15.1135H129.978V10.5695H130.795C131.86 10.5695 132.83 11.1406 132.83 12.9273C132.83 14.7141 131.961 15.1135 130.718 15.1135M131.912 7.36732H129.978V0.490013H125.683V18.3157H131.916C134.396 18.3157 137.129 17.4223 137.129 12.8783C137.129 8.33428 134.449 7.36732 131.916 7.36732" fill="#1F1F1F" fill-opacity="0.8"/>
<path d="M2.6438 22.1051C0.89907 22.1051 0.152832 23.0616 0.152832 24.2632V27.595C0.152832 29.3468 0.951622 30.093 2.6438 30.093C4.33597 30.093 5.13126 29.3363 5.13126 27.6021V26.8908H3.29194V27.8998C3.29194 28.4744 3.01516 28.6881 2.61927 28.6881C2.22338 28.6881 1.99215 28.4534 1.99215 27.8788V24.0706C1.99215 23.6747 2.31097 23.5065 2.61927 23.5065C2.90656 23.5065 3.29194 23.6957 3.29194 24.1021V24.7958H5.13126V24.2738C5.13126 23.0826 4.364 22.1016 2.6438 22.1016" fill="#1F1F1F" fill-opacity="0.8"/>
<path d="M11.9349 23.826H11.9454L12.4359 27.1894H11.4585L11.9349 23.826ZM10.8734 22.4562L9.21625 30.0937H11.0451L11.2798 28.5627H12.6847L12.9615 30.0937H14.7692L13.0771 22.4562H10.8769H10.8734Z" fill="#1F1F1F" fill-opacity="0.8"/>
<path d="M21.8881 22.4562V25.4026H20.6864V22.4562H18.847V30.0937H20.6864V26.846H21.8881V30.0937H23.7274V22.4562H21.8881Z" fill="#1F1F1F" fill-opacity="0.8"/>
<path d="M30.8531 22.4562L29.5674 25.4972V22.4562H27.8121V30.0937H29.5674V28.3175L30.0649 27.4346L30.9197 30.0937H32.8536L31.165 25.8265L32.8536 22.4562H30.8531Z" fill="#1F1F1F" fill-opacity="0.8"/>
<path d="M36.9386 22.4562V23.9031H38.382V30.0937H40.0742V23.9031H41.423V22.4562H36.9386Z" fill="#1F1F1F" fill-opacity="0.8"/>
<path d="M48.272 26.0539H45.5078V27.2346H48.272V26.0539Z" fill="#1F1F1F" fill-opacity="0.8"/>
<path d="M52.3536 22.4562V30.0937H54.1964V23.8996H55.3981V30.0937H57.2374V22.4562H52.3536Z" fill="#1F1F1F" fill-opacity="0.8"/>
<path d="M61.3221 22.4562V30.0937H65.5964V28.6468H63.158V26.846H65.3406V25.4026H63.158V23.8996H65.5964V22.4562H61.3221Z" fill="#1F1F1F" fill-opacity="0.8"/>
<path d="M69.6779 22.4562V23.9031H71.1283V30.0937H72.8205V23.9031H74.1693V22.4562H69.6779Z" fill="#1F1F1F" fill-opacity="0.8"/>
<path d="M78.2542 22.4562V30.0937H82.5319V28.6468H80.097V26.846H82.2796V25.4026H80.097V23.8996H82.5319V22.4562H78.2542Z" fill="#1F1F1F" fill-opacity="0.8"/>
<path d="M88.7854 25.7416H88.4526V23.8252H88.7504C89.2829 23.8252 89.6753 24.0074 89.6753 24.7607C89.6753 25.5139 89.2409 25.7416 88.7819 25.7416M89.2829 22.4554H86.6133V30.0929H88.4526V27.115H89.2829C90.3655 27.115 91.5181 26.67 91.5181 24.7852C91.5181 22.9003 90.348 22.4554 89.2829 22.4554Z" fill="#1F1F1F" fill-opacity="0.8"/>
<path d="M97.7577 28.7196H97.4388V26.7716H97.7927C98.2481 26.7716 98.6615 27.0169 98.6615 27.7806C98.6615 28.5444 98.2902 28.7196 97.7577 28.7196ZM98.2727 25.4018H97.4423V23.8252H99.7616V22.4554H95.603V30.0929H98.2727C99.3342 30.0929 100.504 29.7076 100.504 27.7631C100.504 25.8187 99.3517 25.4018 98.2727 25.4018Z" fill="#1F1F1F" fill-opacity="0.8"/>
<path d="M107.504 25.6994C107.441 25.9867 107.389 26.4666 107.322 27.2759H107.301C107.259 26.4772 107.259 25.9797 107.206 25.6994L106.516 22.3711H104.589L106.313 28.39C106.225 28.6353 106.026 28.6458 105.875 28.6458C105.693 28.6458 105.504 28.6213 105.42 28.5897V29.8895C105.567 30.0157 106.005 30.0927 106.345 30.0927C107.63 30.0927 108.068 29.7319 108.482 28.2499L110.121 22.3711H108.215L107.504 25.6994Z" fill="#1F1F1F" fill-opacity="0.8"/>
<path d="M116.375 25.7416H116.045V23.8252H116.343C116.876 23.8252 117.265 24.0074 117.265 24.7607C117.265 25.5139 116.83 25.7416 116.375 25.7416ZM116.872 22.4554H114.203V30.0929H116.042V27.115H116.872C117.958 27.115 119.107 26.67 119.107 24.7852C119.107 22.9003 117.937 22.4554 116.872 22.4554Z" fill="#1F1F1F" fill-opacity="0.8"/>
<path d="M123.189 22.4562V30.0937H125.028V23.8996H127.467V22.4562H123.189Z" fill="#1F1F1F" fill-opacity="0.8"/>
<path d="M134.27 23.826H134.281L134.768 27.1894H133.79L134.27 23.826ZM133.209 22.4562L131.548 30.0937H133.377L133.608 28.5627H135.013L135.29 30.0937H137.097L135.405 22.4562H133.202H133.209Z" fill="#1F1F1F" fill-opacity="0.8"/>
</svg>
