<svg width="19" height="13" viewBox="0 0 19 13" fill="none" xmlns="http://www.w3.org/2000/svg">
<path d="M12.8726 0.87893C12.5596 0.623834 12.1075 0.623708 11.7945 0.87893L11.7301 0.937524L11.6705 1.00295C11.3974 1.33837 11.4177 1.83296 11.7301 2.14553L15.2301 5.64553H1.70858C1.23701 5.64569 0.854151 6.02843 0.854088 6.50002C0.85409 6.97167 1.23697 7.35436 1.70858 7.35452H15.2301L11.7301 10.8545C11.3966 11.188 11.3967 11.729 11.7301 12.0625C12.0635 12.3956 12.6036 12.3956 12.9371 12.0625L17.8961 7.10354C18.2292 6.77005 18.2292 6.23 17.8961 5.89651L12.9371 0.937524L12.8726 0.87893Z" fill="#1F1F1F"/>
</svg>
