<svg width="157" height="28" viewBox="0 0 157 28" fill="none" xmlns="http://www.w3.org/2000/svg">
<path d="M47.5838 16.9841C47.5838 19.0623 45.6489 20.5672 42.9257 20.5672H36.5479V7.66803H42.7108C45.3623 7.66803 47.2255 9.10128 47.2255 11.1078C47.2255 12.4694 46.5088 13.3293 45.4341 13.831C46.5805 14.261 47.5838 15.4076 47.5838 16.9841ZM39.3426 10.0329V12.8277H42.6391C43.6424 12.8277 44.2873 12.2544 44.2873 11.4661C44.2873 10.6779 43.5706 10.0329 42.6391 10.0329H39.3426ZM42.9257 18.2024C44.0007 18.2024 44.7891 17.5574 44.7891 16.6258C44.7891 15.6942 44.0724 15.0493 42.9257 15.0493H39.3426V18.2024H42.9257Z" fill="#1F1F1F" fill-opacity="0.8"/>
<path d="M58.1182 20.4956L53.6753 15.4076H52.9586V20.4956H50.0919V7.66803H52.9586V12.6127H53.6753L57.9748 7.66803H61.343L55.9682 13.831L61.8445 20.4956H58.1182Z" fill="#1F1F1F" fill-opacity="0.8"/>
<path d="M61.8448 14.1179C61.8448 10.2481 64.7112 7.45327 68.7241 7.45327C72.7373 7.45327 75.6037 10.2481 75.6037 14.1179C75.6037 17.9876 72.7373 20.7825 68.7241 20.7825C64.7112 20.7825 61.8448 17.9876 61.8448 14.1179ZM72.5941 14.1179C72.5941 11.6814 71.0173 10.0331 68.7241 10.0331C66.4309 10.0331 64.8544 11.6814 64.8544 14.1179C64.8544 16.5544 66.4309 18.2026 68.7241 18.2026C71.0173 18.2026 72.5941 16.5544 72.5941 14.1179Z" fill="#1F1F1F" fill-opacity="0.8"/>
<path d="M86.5686 7.66803H89.435V20.4956H86.5686V15.3359H80.8355V20.4956H77.969V7.66803H80.8355V12.7561H86.5686V7.66803Z" fill="#1F1F1F" fill-opacity="0.8"/>
<path d="M95.5976 20.4956V10.2479H91.1544V7.66803H102.835V10.2479H98.3923V20.4956H95.5976Z" fill="#1F1F1F" fill-opacity="0.8"/>
<path d="M115.162 13.3296V20.4958H113.083L112.51 18.4893C111.865 19.5642 110.504 20.7825 108.425 20.7825C105.846 20.7825 103.982 19.0626 103.982 16.6977C103.982 14.3329 105.846 12.6846 109.644 12.6846H112.439C112.295 11.0364 111.435 9.88981 109.859 9.88981C108.569 9.88981 107.709 10.6064 107.279 11.3947L104.699 10.9647C105.344 8.74321 107.566 7.45327 110.002 7.45327C113.155 7.45327 115.162 9.60314 115.162 13.3296ZM112.367 14.9062H109.715C107.566 14.9062 106.849 15.6228 106.849 16.5544C106.849 17.6293 107.709 18.3459 109.142 18.3459C111.005 18.3459 112.367 16.9844 112.367 14.9062Z" fill="#1F1F1F" fill-opacity="0.8"/>
<path d="M126.198 20.4956L121.755 15.4076H121.038V20.4956H118.172V7.66803H121.038V12.6127H121.755L126.054 7.66803H129.422L124.048 13.831L129.924 20.4956H126.198Z" fill="#1F1F1F" fill-opacity="0.8"/>
<path d="M135.084 20.4956V10.2479H130.641V7.66803H142.322V10.2479H137.878V20.4956H135.084Z" fill="#1F1F1F" fill-opacity="0.8"/>
<path d="M156.654 14.9062H146.334C146.621 16.9127 148.054 18.2026 150.204 18.2026C151.709 18.2026 152.856 17.5577 153.501 16.6261L156.152 17.056C155.221 19.4925 152.712 20.7825 149.989 20.7825C146.12 20.7825 143.325 17.9876 143.325 14.1179C143.325 10.2481 146.12 7.45327 149.989 7.45327C153.859 7.45327 156.654 10.2481 156.654 13.9745C156.725 14.3329 156.654 14.6195 156.654 14.9062ZM146.549 12.6846H153.644C153.142 11.1081 151.852 9.96145 150.061 9.96145C148.341 9.88981 146.979 11.0364 146.549 12.6846Z" fill="#1F1F1F" fill-opacity="0.8"/>
<path opacity="0.5" fill-rule="evenodd" clip-rule="evenodd" d="M1.92439 1.92431C8.39233e-05 3.84862 8.39233e-05 6.94575 8.39233e-05 13.14V14.235C8.39233e-05 20.4293 8.39233e-05 23.5264 1.92439 25.4507C3.84871 27.375 6.94583 27.375 13.1401 27.375H14.2351C20.4293 27.375 23.5265 27.375 25.4508 25.4507C27.3751 23.5264 27.3751 20.4293 27.3751 14.235V13.14C27.3751 6.94575 27.3751 3.84862 25.4508 1.92431C23.5265 0 20.4293 0 14.2351 0H13.1401C6.94583 0 3.84871 0 1.92439 1.92431ZM4.61967 8.32663C4.76793 15.4441 8.32666 19.7214 14.5659 19.7214H14.9195V15.6494C17.2122 15.8775 18.9458 17.5543 19.6416 19.7214H22.8811C21.9914 16.4821 19.653 14.6913 18.193 14.0069C19.653 13.1629 21.7061 11.1097 22.1966 8.32663H19.2537C18.6149 10.5851 16.7217 12.6382 14.9195 12.8321V8.32663H11.9766V16.2197C10.1516 15.7635 7.84762 13.5507 7.74496 8.32663H4.61967Z" fill="#1F1F1F" fill-opacity="0.8"/>
</svg>
