<svg width="19" height="13" viewBox="0 0 19 13" fill="none" xmlns="http://www.w3.org/2000/svg">
<path d="M6.12736 0.878991C6.44044 0.623895 6.89247 0.62377 7.20548 0.878991L7.26993 0.937585L7.3295 1.00301C7.60263 1.33843 7.5823 1.83302 7.26993 2.14559L3.76993 5.64559H17.2914C17.763 5.64575 18.1458 6.02849 18.1459 6.50008C18.1459 6.97173 17.763 7.35442 17.2914 7.35458H3.76993L7.26993 10.8546C7.60335 11.1881 7.60327 11.729 7.26993 12.0626C6.93647 12.3957 6.3964 12.3956 6.0629 12.0626L1.10392 7.1036C0.77078 6.77011 0.77078 6.23006 1.10392 5.89657L6.0629 0.937585L6.12736 0.878991Z" fill="#1F1F1F"/>
</svg>
