<svg width="87" height="42" viewBox="0 0 87 42" fill="none" xmlns="http://www.w3.org/2000/svg">
<path d="M74.1481 37.6398C73.4469 37.5276 72.8102 37.1676 72.3556 36.6262C71.901 36.0847 71.6591 35.3984 71.6746 34.6939L71.774 30.4911C70.1904 31.5019 68.3793 32.1083 66.5022 32.2563C61.2158 32.6089 57.1385 28.499 56.2963 27.5907C56.2415 27.5389 56.1767 27.4988 56.1059 27.4726C56.035 27.4464 55.9595 27.4347 55.884 27.4382L50.3849 27.9921C50.3154 28.0014 50.2512 28.0344 50.2033 28.0853C50.1555 28.1363 50.1269 28.2021 50.1224 28.2716L49.7495 33.8962C49.7458 33.9611 49.7559 34.026 49.7793 34.0867C49.8027 34.1474 49.8387 34.2026 49.8851 34.2484C51.8929 36.4089 54.3127 38.1526 57.0045 39.3786C59.6963 40.6046 62.6065 41.2884 65.5665 41.3905C66.062 41.4021 66.5576 41.4137 67.165 41.4279C70.6125 41.1638 73.9383 40.0467 76.8383 38.1787L74.1481 37.6398Z" fill="#E3E4EF"/>
<path d="M12.9281 27.9259C11.1262 25.9282 10.1135 23.3514 10.0767 20.6709C10.0917 18.5444 10.76 16.4731 11.9925 14.7333L8.2359 14.6455C7.52076 14.6195 6.83905 14.3385 6.31582 13.8541C5.79259 13.3697 5.46292 12.7144 5.38731 12.0083L5.01471 8.82594L4.80016 9.10656C2.24955 12.4753 0.872669 16.5758 0.877297 20.7893C0.933018 25.9123 2.96309 30.82 6.55084 34.5052L7.19199 35.1231C7.24265 35.1752 7.30497 35.2146 7.37389 35.2383C7.44281 35.262 7.51638 35.2692 7.58863 35.2594L12.7078 34.5379C12.7786 34.5317 12.8447 34.4997 12.8931 34.4481C12.9416 34.3965 12.9691 34.3289 12.9703 34.2584L13.0964 28.2472C13.0806 28.1237 13.021 28.0098 12.9281 27.9259Z" fill="#E3E4EF"/>
<path d="M36.034 29.5135C36.0293 29.4466 36.0022 29.3831 35.957 29.3332C35.9118 29.2833 35.8512 29.2498 35.7846 29.2379L30.0932 28.4544C30.0253 28.4417 29.9553 28.4443 29.8884 28.462C29.8216 28.4796 29.7596 28.5119 29.707 28.5564C28.4908 29.669 27.0655 30.5328 25.5125 31.0983C23.9594 31.6637 22.3093 31.9198 20.6563 31.8519C18.8961 31.6711 17.2019 31.0884 15.7064 30.1495L15.6101 34.2254C15.6027 34.9321 15.3398 35.6127 14.8694 36.1434C14.399 36.6741 13.7521 37.0196 13.0466 37.117L10.2863 37.5127C13.1228 39.4154 16.3944 40.5829 19.8025 40.9087C20.314 40.9207 20.8255 40.9326 21.401 40.946C26.7862 40.8779 31.9578 38.8468 35.9306 35.2396C35.9813 35.1942 36.0212 35.1383 36.0476 35.0758C36.074 35.0133 36.0861 34.9458 36.0831 34.8782L36.034 29.5135Z" fill="#E3E4EF"/>
<path d="M54.4473 10.4091C54.4498 10.3409 54.4277 10.2741 54.385 10.2208C54.3423 10.1674 54.2817 10.1309 54.2142 10.118L48.5426 9.17621C48.4633 9.15953 48.3809 9.16453 48.3042 9.19069C48.2275 9.21685 48.1594 9.26317 48.1072 9.32472L40.4389 17.7463L32.2452 26.0603L36.1671 26.5963C36.8592 26.7061 37.4895 27.0563 37.9457 27.5842C38.4019 28.1122 38.6543 28.7837 38.658 29.479L38.6991 32.4791L46.8919 24.1968L54.1829 16.179C54.2232 16.1372 54.2545 16.0879 54.275 16.0338C54.2955 15.9797 54.3048 15.9221 54.3023 15.8644L54.4473 10.4091Z" fill="#E3E4EF"/>
<path d="M78.9977 5.69857C75.4739 2.77927 71.1079 1.04387 66.5274 0.741976C60.735 0.586879 55.1058 2.65518 50.8126 6.51597L50.4851 6.84156L54.643 7.54168C55.3452 7.66402 55.9803 8.0313 56.4337 8.57727C56.8871 9.12324 57.129 9.81196 57.1157 10.5192L57.0519 13.2154L57.3464 12.9366C57.4586 12.8253 57.5786 12.722 57.7056 12.6276C60.0064 10.6856 62.959 9.67276 65.9777 9.78999C68.2663 10.006 70.4555 10.8241 72.3193 12.1597C72.4107 12.1989 72.5139 12.2013 72.607 12.1664L78.2101 11.9482C78.28 11.9429 78.3458 11.9137 78.3965 11.8658C78.4472 11.8178 78.4796 11.7539 78.4883 11.6849L79.1013 6.0501C79.1137 5.92406 79.0765 5.79814 78.9977 5.69857Z" fill="#E3E4EF"/>
<path d="M81.6227 8.31478L81.2141 12.066C81.1343 12.765 80.8054 13.4127 80.2867 13.8923C79.7681 14.3719 79.0937 14.6519 78.3853 14.6817L75.0871 14.8268C76.5082 16.6602 77.2713 18.9121 77.255 21.2248C77.1861 23.8007 76.1983 26.2686 74.4673 28.1894L74.3151 34.6284C74.3089 34.6974 74.3296 34.766 74.373 34.8202C74.4163 34.8744 74.479 34.9099 74.5481 34.9195L79.4707 35.7486C79.5437 35.7598 79.6184 35.7536 79.6885 35.7304C79.7586 35.7072 79.8221 35.6677 79.8737 35.6152C81.8654 33.7879 83.4688 31.5841 84.5897 29.1332C85.7106 26.6823 86.3264 24.0338 86.4008 21.3433C86.4574 16.5687 84.7587 11.9371 81.6227 8.31478Z" fill="#E3E4EF"/>
<path d="M28.5876 8.25061C28.6238 7.55018 28.909 6.88515 29.3925 6.37355C29.876 5.86194 30.5266 5.53686 31.2287 5.456L35.1724 5.07206C31.2661 1.83171 26.2971 0.126366 21.2079 0.279511C16.1188 0.432657 11.2634 2.43364 7.56283 5.9029C7.50818 5.95544 7.46603 6.01942 7.43946 6.09017C7.41288 6.16093 7.40255 6.23667 7.40921 6.31189L8.0022 11.6734C8.01205 11.7409 8.04591 11.8026 8.09765 11.8475C8.14939 11.8923 8.2156 11.9174 8.28431 11.918L14.1487 12.1502C14.2631 12.1602 14.3774 12.1291 14.4706 12.0625C16.4845 10.4578 18.9588 9.52681 21.5389 9.40304C23.9999 9.36275 26.4132 10.0787 28.4479 11.4528L28.5876 8.25061Z" fill="#E3E4EF"/>
<path d="M36.0084 18.4207L38.5138 15.9562L41.799 12.3039C40.1484 10.4087 38.8766 8.72868 38.0043 7.74033C37.9521 7.68515 37.8877 7.64268 37.8162 7.61624C37.7447 7.5898 37.668 7.5801 37.5921 7.58788L31.484 8.19102C31.4132 8.1972 31.3472 8.22918 31.2987 8.28079C31.2503 8.3324 31.2227 8.39998 31.2215 8.47052L31.038 13.5283C31.849 14.4041 34.0259 16.3591 36.0084 18.4207Z" fill="#E3E4EF"/>
<path d="M45.7826 29.17C46.3271 29.8175 46.824 30.4479 47.3384 31.0153L47.4066 28.1289C47.428 27.8653 47.4825 27.6053 47.5689 27.3551L45.7826 29.17Z" fill="#E3E4EF"/>
<path d="M49.3556 25.5244C49.5931 25.4301 49.8419 25.3666 50.0958 25.3354L53.8792 24.9636C53.2403 24.2505 52.555 23.4728 51.8845 22.743L49.3556 25.5244Z" fill="#E3E4EF"/>
</svg>
