<svg width="57" height="64" viewBox="0 0 57 64" fill="none" xmlns="http://www.w3.org/2000/svg">
<path d="M27.7428 2.30244L25.8294 9.82828C25.7292 10.2121 25.5072 10.5533 25.1965 10.801C24.8859 11.0487 24.5032 11.1897 24.1055 11.2029H14.366C14.1101 11.202 13.8569 11.2541 13.6223 11.356C13.3878 11.4579 13.1771 11.6074 13.0036 11.7948C12.8302 11.9823 12.6977 12.2036 12.6147 12.4449C12.5317 12.6861 12.5 12.9419 12.5215 13.196L13.211 21.1342C13.2415 21.5977 13.4468 22.0326 13.7858 22.3513C14.1248 22.6701 14.5722 22.8491 15.0382 22.8525H19.9856C20.2635 22.8583 20.5363 22.9272 20.7834 23.054C21.0306 23.1808 21.2454 23.3621 21.4116 23.5841C21.5778 23.8061 21.6911 24.063 21.7427 24.3352C21.7943 24.6074 21.7829 24.8877 21.7094 25.1549L19.7098 32.8354C19.6071 33.2178 19.3845 33.5575 19.0743 33.8048C18.7642 34.0521 18.3828 34.1941 17.986 34.2099H16.2622C16.0063 34.209 15.7531 34.2612 15.5185 34.3631C15.284 34.465 15.0733 34.6145 14.8998 34.8019C14.7264 34.9894 14.5939 35.2107 14.5109 35.452C14.4279 35.6932 14.3962 35.949 14.4177 36.2031L15.5037 48.54C15.5378 48.7448 15.5378 48.9538 15.5037 49.1585L13.1593 57.9902C13.0991 58.2254 12.9927 58.4464 12.8464 58.6404C12.7001 58.8345 12.5167 58.9977 12.3067 59.1207C12.0968 59.2437 11.8645 59.324 11.6232 59.3571C11.382 59.3901 11.1365 59.3753 10.9011 59.3133L6.10886 58.0246C5.74299 57.9273 5.41602 57.7201 5.17239 57.4311C4.92875 57.1422 4.78025 56.7855 4.74704 56.4095L0.00653748 1.99316C-0.0149842 1.73904 0.0167681 1.48325 0.0997765 1.24202C0.182785 1.0008 0.315235 0.779422 0.488705 0.59197C0.662176 0.404519 0.872874 0.255087 1.10741 0.153178C1.34194 0.0512683 1.59518 -0.000892302 1.85102 1.15486e-05H25.9845C26.2641 0.00400935 26.5392 0.0713351 26.7889 0.196896C27.0386 0.322457 27.2563 0.502966 27.4257 0.724771C27.5951 0.946577 27.7117 1.20387 27.7666 1.4772C27.8215 1.75052 27.8134 2.03271 27.7428 2.30244Z" fill="#E3E4EF"/>
<path d="M54.8061 7.2036e-06H35.4821C35.0844 0.0131744 34.7017 0.154143 34.3911 0.401872C34.0804 0.6496 33.8584 0.990806 33.7582 1.37459L31.7758 8.91762C31.7055 9.18366 31.6965 9.46214 31.7495 9.73215C31.8026 10.0022 31.9163 10.2567 32.0822 10.4766C32.2481 10.6965 32.4618 10.8761 32.7073 11.0019C32.9528 11.1277 33.2237 11.1964 33.4997 11.2029H42.1188C42.3755 11.2015 42.6297 11.2541 42.8648 11.3572C43.0998 11.4603 43.3104 11.6116 43.4828 11.8013C43.6552 11.991 43.7855 12.2148 43.8654 12.458C43.9452 12.7013 43.9727 12.9586 43.946 13.2132L43.2565 21.1342C43.226 21.5977 43.0206 22.0326 42.6817 22.3513C42.3427 22.6701 41.8952 22.8491 41.4292 22.8524H29.5349C29.135 22.8667 28.7506 23.0101 28.4396 23.2612C28.1287 23.5122 27.908 23.8572 27.8111 24.2442L25.7597 32.0106C25.6927 32.2764 25.6862 32.5538 25.7407 32.8225C25.7951 33.0912 25.9091 33.3443 26.0744 33.5634C26.2396 33.7824 26.4519 33.9619 26.6957 34.0886C26.9396 34.2154 27.2087 34.2862 27.4835 34.2959H40.0847C40.3421 34.2947 40.5969 34.3473 40.8327 34.4503C41.0685 34.5532 41.2801 34.7042 41.4539 34.8936C41.6276 35.083 41.7596 35.3065 41.8415 35.5497C41.9233 35.793 41.9532 36.0507 41.9291 36.3062L40.8259 47.6637C40.8086 48.0401 40.6676 48.4005 40.4247 48.6893C40.1817 48.978 39.8502 49.1791 39.4813 49.2616L28.7247 52.1483C28.4203 52.2333 28.0982 52.2333 27.7938 52.1483L22.6224 50.8252C22.3869 50.7632 22.1415 50.7483 21.9002 50.7814C21.659 50.8145 21.4267 50.8948 21.2167 51.0178C21.0068 51.1408 20.8234 51.304 20.677 51.498C20.5307 51.6921 20.4244 51.9131 20.3642 52.1483L18.5542 59.5023C18.4376 59.9668 18.5075 60.4583 18.749 60.8722C18.9904 61.2862 19.3844 61.5899 19.847 61.7188L27.8455 63.9353C28.1615 64.0216 28.4949 64.0216 28.8109 63.9353L50.5482 58.0074C50.914 57.9157 51.2418 57.7124 51.4859 57.4259C51.7301 57.1394 51.8784 56.784 51.9101 56.4095L56.6506 1.97597C56.6696 1.72323 56.636 1.4693 56.5518 1.23013C56.4677 0.990954 56.3348 0.771701 56.1616 0.586145C55.9884 0.40059 55.7786 0.252737 55.5453 0.151869C55.312 0.051001 55.0604 -0.000702263 54.8061 7.2036e-06Z" fill="#E3E4EF"/>
</svg>
