<svg width="24" height="24" viewBox="0 0 24 24" fill="none" xmlns="http://www.w3.org/2000/svg">
<path fill-rule="evenodd" clip-rule="evenodd" d="M0.5 5.27783C0.5 5.00169 0.723858 4.77783 1 4.77783H23C23.2761 4.77783 23.5 5.00169 23.5 5.27783C23.5 5.55397 23.2761 5.77783 23 5.77783H1C0.723858 5.77783 0.5 5.55397 0.5 5.27783ZM0.5 11.6665C0.5 11.3904 0.723858 11.1665 1 11.1665H23C23.2761 11.1665 23.5 11.3904 23.5 11.6665C23.5 11.9426 23.2761 12.1665 23 12.1665H1C0.723858 12.1665 0.5 11.9426 0.5 11.6665ZM0.5 18.0554C0.5 17.7793 0.723858 17.5554 1 17.5554H23C23.2761 17.5554 23.5 17.7793 23.5 18.0554C23.5 18.3316 23.2761 18.5554 23 18.5554H1C0.723858 18.5554 0.5 18.3316 0.5 18.0554Z" fill="#1F1F1F"/>
</svg>
