<svg width="24" height="24" viewBox="0 0 24 24" fill="none" xmlns="http://www.w3.org/2000/svg">
<path fill-rule="evenodd" clip-rule="evenodd" d="M3.8682 19.091C3.67294 19.2862 3.67294 19.6028 3.8682 19.7981C4.06346 19.9933 4.38005 19.9933 4.57531 19.7981L11.9999 12.3735L19.4245 19.7981C19.6197 19.9934 19.9363 19.9934 20.1316 19.7981C20.3268 19.6029 20.3268 19.2863 20.1316 19.091L12.707 11.6664L20.1317 4.24174C20.3269 4.04647 20.3269 3.72989 20.1317 3.53463C19.9364 3.33937 19.6198 3.33937 19.4246 3.53463L11.9999 10.9593L4.57523 3.53466C4.37997 3.3394 4.06339 3.3394 3.86813 3.53466C3.67286 3.72992 3.67286 4.0465 3.86813 4.24176L11.2928 11.6664L3.8682 19.091Z" fill="#1F1F1F"/>
</svg>
