<svg width="88" height="19" viewBox="0 0 88 19" fill="none" xmlns="http://www.w3.org/2000/svg">
<path d="M12.4549 0.666626C11.5958 0.666626 10.8667 1.21663 10.6081 1.97989C10.5398 2.18167 10.515 2.39377 10.4817 2.60329L9.75951 9.11772C9.74297 9.26692 9.54121 9.30123 9.47622 9.16589L7.03187 4.24824C6.94387 4.06499 6.86122 3.87688 6.76103 3.70007C6.4278 3.11202 5.79142 2.71455 5.06113 2.71455C3.98574 2.71455 3.11401 3.5764 3.11401 4.63955C3.11401 4.71122 3.11798 4.78198 3.12569 4.85162C3.13361 4.92306 3.14751 4.9934 3.16051 5.06405L4.59626 12.0865C4.62007 12.2135 4.48211 12.3088 4.37163 12.2416L2.05531 10.8324C1.84739 10.7002 1.6 10.6235 1.33445 10.6235C0.59746 10.6235 0 11.2142 0 11.9428C0 12.1972 0.0728064 12.4347 0.19896 12.6362C0.339171 12.8601 0.556049 13.0353 0.740563 13.2222L4.20442 16.7304L4.20684 16.7275C4.51915 17.0562 4.96278 17.2614 5.45494 17.2614C6.39218 17.2614 7.15356 16.5169 7.16707 15.5937L7.17679 13.3161C7.1775 13.1501 7.40817 13.109 7.46627 13.2646L7.78833 14.127C8.08913 14.8884 8.33917 15.8543 8.81331 16.5313C9.12233 16.9725 9.63796 17.2614 10.2219 17.2614C10.5276 17.2614 10.8146 17.1822 11.0631 17.0434C11.6914 16.6923 11.8257 15.8914 11.9024 15.1762C12.3274 11.2128 12.1243 12.9451 12.3154 11.1986C12.3347 11.0225 12.5896 11.0166 12.61 11.1926C12.6579 11.6059 12.7371 12.4163 13.0704 15.2434C13.1497 15.9153 13.2636 16.6669 13.8455 17.0129C14.1147 17.1729 14.4288 17.2614 14.7382 17.2614C15.3221 17.2614 15.8378 16.9725 16.1468 16.5313C16.5175 15.9007 16.8567 14.8878 17.1466 14.127L17.4429 13.2992C17.4993 13.1418 17.7324 13.1817 17.7331 13.3489L17.7427 15.5937C17.7562 16.5169 18.5176 17.2614 19.4548 17.2614C19.947 17.2614 20.3906 17.0562 20.7029 16.7275L20.7053 16.7304L24.1495 13.2421C24.3268 13.0625 24.535 12.8934 24.6787 12.6849C24.8245 12.4735 24.9097 12.218 24.9097 11.9428C24.9097 11.2142 24.3123 10.6235 23.5753 10.6235C23.384 10.6235 23.2022 10.6633 23.0377 10.7349C22.795 10.8407 22.5708 10.9992 22.3432 11.133L20.5434 12.1911C20.4328 12.2561 20.2971 12.1609 20.3207 12.0349L21.7211 5.26303C21.7546 5.06169 21.7957 4.86108 21.7957 4.65615C21.7957 3.593 20.924 2.73115 19.8486 2.73115C19.1043 2.73115 18.4575 3.14404 18.1298 3.7508C18.0771 3.8485 18.0318 3.95037 17.9812 4.04926L15.4336 9.16718C15.3685 9.30237 15.1669 9.26797 15.1503 9.11885L14.428 2.60329C14.3947 2.39377 14.3699 2.18167 14.3016 1.97989C14.0431 1.21663 13.314 0.666626 12.4549 0.666626Z" fill="white"/>
<path d="M30.8198 4.45239L40.2484 13.881" stroke="white" stroke-width="1.04762" stroke-linecap="round" stroke-linejoin="round"/>
<path d="M40.248 4.45239L30.8195 13.881" stroke="white" stroke-width="1.04762" stroke-linecap="round" stroke-linejoin="round"/>
<path fill-rule="evenodd" clip-rule="evenodd" d="M69.4741 0C69.8944 0 70.208 0.131801 70.4149 0.388985C70.6217 0.646276 70.7284 0.94117 70.7284 1.27995C70.7284 1.85093 70.4748 2.29012 69.9612 2.5975C69.4474 2.90499 68.6668 3.06189 67.6193 3.06189C66.5585 3.06189 65.7645 2.90499 65.2374 2.60381C64.7103 2.29642 64.4501 1.86343 64.4501 1.29245C64.4501 0.966266 64.5569 0.665077 64.7637 0.401591C64.9772 0.131801 65.2842 0 65.7045 0C66.1447 0 66.4984 0.131801 66.7519 0.401591C67.0121 0.665077 67.1457 0.972462 67.1457 1.31135C67.1457 1.56224 67.0789 1.80074 66.9455 2.01403C67.3524 2.21482 67.7727 2.21482 68.2198 2.01403C68.0864 1.81323 68.0196 1.57484 68.0196 1.31135C68.0196 0.972462 68.1531 0.665077 68.4132 0.401591C68.6801 0.131801 69.027 0 69.4741 0ZM66.9685 4.22286V6.4251H65.3088V12.3049L69.8455 7.57023V6.42666H68.1738V4.22436H69.8455V4.22286H72.6344V4.22436H74.292V6.42666H72.6344V15.7655H74.2961V17.9678H72.6344V17.9698H69.8455V17.9678H68.178V15.7655H69.8455V9.36984L65.3088 14.1046V15.764H66.9685V17.9662H65.3088V17.9698H62.5199V17.9662H60.8504V15.764H62.5199V6.4251H60.8504V4.22286H62.5199H65.3088H66.9685ZM53.1139 3.75185C49.8714 3.75185 47.1359 5.93535 46.2485 8.94074H49.4443C50.285 6.85766 52.0597 5.48361 53.8879 5.69072C55.7894 5.904 57.1438 7.76738 57.284 10.1014C57.3173 10.6285 56.7969 11.0489 56.2498 10.9297C55.7031 10.809 55.2185 10.4208 54.7146 10.0172C53.9086 9.37149 53.0527 8.6859 51.8129 8.99093C50.7588 9.24815 49.9514 10.321 49.1441 11.7077L49.2642 11.7893C49.8047 11.3124 50.712 10.6724 51.6527 10.9736C52.1334 11.1274 52.5522 11.4727 52.9586 11.8077C53.3645 12.1425 53.758 12.467 54.1881 12.5799C55.636 12.9625 56.8368 12.0464 57.2305 11.4567C56.8235 14.437 54.6285 16.6456 52.3467 16.3883C50.7721 16.2064 49.5778 14.9012 49.1308 13.1382H46.2485C47.1359 16.1436 49.8714 18.3333 53.1139 18.3333C57.0704 18.3333 60.2864 15.0707 60.2864 11.0426C60.2864 7.01457 57.077 3.75185 53.1139 3.75185ZM85.4318 4.2234H82.8231C82.8231 4.95182 82.8056 5.62539 82.7896 6.24514C82.7758 6.77291 82.7632 7.26167 82.7632 7.71184C82.7632 11.6019 78.9535 12.3862 78.026 11.5015C76.2047 9.76357 79.7874 5.32769 81.829 4.2234H78.1328C76.9519 5.32769 74.7701 7.78713 74.7701 10.6734C74.7701 11.6897 75.424 13.7415 77.9192 14.1995C79.7473 14.532 82.1359 13.0325 82.8299 11.4765V13.3086V15.7642H80.9946V17.9664H87.1128V15.7642H85.6187V4.2234H85.4318Z" fill="white"/>
</svg>
