<svg width="250" height="50" viewBox="0 0 250 50" fill="none" xmlns="http://www.w3.org/2000/svg">
<path d="M36.632 0C34.1052 0 31.9608 1.61765 31.2004 3.86253C30.9994 4.456 30.9266 5.07984 30.8286 5.69608L28.7045 24.8562C28.6558 25.295 28.0624 25.3959 27.8712 24.9978L20.682 10.5342C20.4231 9.99519 20.1801 9.44193 19.8854 8.92189C18.9053 7.19233 17.0336 6.02332 14.8857 6.02332C11.7228 6.02332 9.15886 8.55817 9.15886 11.6851C9.15886 11.8959 9.17052 12.104 9.19321 12.3088C9.21649 12.5189 9.25737 12.7258 9.29563 12.9336L13.5184 33.5878C13.5884 33.9615 13.1827 34.2416 12.8577 34.0439L6.04503 29.8993C5.43351 29.5105 4.70589 29.285 3.92485 29.285C1.75724 29.285 0 31.0222 0 33.1652C0 33.9134 0.214137 34.6121 0.585175 35.2046C0.997562 35.8633 1.63544 36.3785 2.17813 36.9281L12.3659 47.2464L12.3731 47.2379C13.2916 48.2045 14.5964 48.8083 16.0439 48.8083C18.8005 48.8083 21.0399 46.6184 21.0796 43.9031L21.1082 37.2045C21.1103 36.7161 21.7887 36.5952 21.9596 37.0528L22.9068 39.5892C23.7916 41.8288 24.527 44.6698 25.9215 46.6607C26.8304 47.9584 28.3469 48.8083 30.0643 48.8083C30.9636 48.8083 31.8078 48.5752 32.5385 48.1669C34.3865 47.1342 34.7814 44.7788 35.007 42.6751C36.2569 31.0182 35.6596 36.1131 36.2218 30.9764C36.2785 30.4583 37.0282 30.441 37.0882 30.9587C37.2292 32.1743 37.4622 34.5579 38.4425 42.8728C38.6755 44.8491 39.0106 47.0596 40.722 48.0772C41.5137 48.5478 42.4376 48.8083 43.3478 48.8083C45.0651 48.8083 46.5817 47.9584 47.4906 46.6607C48.5809 44.806 49.5786 41.8269 50.4311 39.5892L51.3027 37.1547C51.4684 36.6916 52.154 36.809 52.1561 37.3007L52.1843 43.9031C52.224 46.6184 54.4634 48.8083 57.22 48.8083C58.6675 48.8083 59.9723 48.2045 60.8909 47.2379L60.898 47.2464L71.028 36.9866C71.5494 36.4586 72.1618 35.961 72.5845 35.348C73.0133 34.7261 73.2639 33.9746 73.2639 33.1652C73.2639 31.0222 71.5067 29.285 69.3391 29.285C68.7765 29.285 68.2417 29.402 67.758 29.6127C67.0441 29.9237 66.3846 30.3898 65.7152 30.7834L60.4218 33.8956C60.0966 34.0868 59.6973 33.8066 59.7669 33.436L63.8856 13.5188C63.9842 12.9267 64.1051 12.3366 64.1051 11.7339C64.1051 8.60698 61.5411 6.07213 58.3782 6.07213C56.189 6.07213 54.2867 7.28652 53.323 9.07109C53.1678 9.35845 53.0348 9.65807 52.8858 9.94893L45.3929 25.0016C45.2013 25.3992 44.6085 25.2981 44.5598 24.8595L42.4353 5.69608C42.3373 5.07984 42.2645 4.456 42.0635 3.86253C41.3032 1.61765 39.1587 0 36.632 0Z" fill="white"/>
<path fill-rule="evenodd" clip-rule="evenodd" d="M203.197 24.6247C206.054 24.6247 208.624 25.1685 210.906 26.2561C213.188 27.3224 214.979 28.8045 216.28 30.7025C217.581 32.5792 218.231 34.7011 218.231 37.0682C218.231 39.4141 217.581 41.5253 216.28 43.402C214.979 45.2786 213.188 46.7608 210.906 47.8484C208.624 48.9146 206.054 49.4478 203.197 49.4478C200.446 49.4478 197.908 48.9146 195.584 47.8484C193.28 46.7608 191.446 45.2786 190.081 43.402C188.717 41.504 188.034 39.3927 188.034 37.0682C188.034 34.7224 188.706 32.6005 190.049 30.7025C191.414 28.8045 193.259 27.3224 195.584 26.2561C197.908 25.1685 200.446 24.6247 203.197 24.6247ZM203.197 44.2337C204.583 44.2337 205.894 43.9564 207.131 43.402C208.368 42.8262 209.371 42.0051 210.138 40.9388C210.906 39.8512 211.29 38.561 211.29 37.0682C211.29 35.5968 210.906 34.3172 210.138 33.2296C209.371 32.1207 208.368 31.2783 207.131 30.7025C205.894 30.1267 204.583 29.8388 203.197 29.8388C201.768 29.8388 200.424 30.1267 199.166 30.7025C197.929 31.257 196.938 32.078 196.191 33.1656C195.445 34.2532 195.072 35.5328 195.072 37.0043C195.072 38.4971 195.445 39.7979 196.191 40.9069C196.959 41.9945 197.961 42.8262 199.198 43.402C200.456 43.9564 201.789 44.2337 203.197 44.2337Z" fill="white"/>
<path fill-rule="evenodd" clip-rule="evenodd" d="M168.571 48.776C168.33 48.776 168.101 48.6708 167.945 48.488L161.634 41.1308H154.948V47.9505C154.948 48.4064 154.579 48.776 154.123 48.776H149.376C148.92 48.776 148.551 48.4064 148.551 47.9505V25.93C148.551 25.4741 148.92 25.1045 149.376 25.1045H165.856C167.84 25.1045 169.588 25.4351 171.103 26.0962C172.638 26.7573 173.822 27.6849 174.653 28.8792C175.419 29.9327 175.842 31.141 175.92 32.5042C175.943 32.9071 175.939 33.314 175.914 33.7166C175.803 35.4688 175.213 36.9379 174.141 38.1239C172.969 39.446 171.337 40.3311 169.247 40.7789L174.952 47.4123C175.412 47.9475 175.032 48.776 174.326 48.776H168.571ZM166.574 29.9761H154.939V36.219H166.574C168.298 36.219 169.695 34.8214 169.695 33.0975C169.695 31.3736 168.298 29.9761 166.574 29.9761Z" fill="white"/>
<path d="M116.64 48.808C117.096 48.808 117.465 48.4384 117.465 47.9825V25.962C117.465 25.5061 117.096 25.1365 116.64 25.1365H110.336C110.02 25.1365 109.732 25.3167 109.594 25.6006L101.407 42.4103L92.9665 25.5918C92.8265 25.3127 92.5409 25.1365 92.2287 25.1365H85.7904C85.3344 25.1365 84.9648 25.5061 84.9648 25.962V47.9825C84.9648 48.4384 85.3344 48.808 85.7904 48.808H90.761C91.2169 48.808 91.5865 48.4384 91.5865 47.9825V35.8207L98.0416 48.3603C98.1831 48.6352 98.4664 48.808 98.7756 48.808H104.09C104.405 48.808 104.694 48.628 104.832 48.3442L110.812 36.0766V47.9825C110.812 48.4384 111.181 48.808 111.637 48.808H116.64Z" fill="white"/>
<path d="M127.456 39.1475H142.113C142.569 39.1475 142.938 38.7779 142.938 38.322V35.0148C142.938 34.5589 142.569 34.1893 142.113 34.1893H127.456V30.1587H144.827C145.285 30.1587 145.655 29.7859 145.652 29.3279L145.631 25.9568C145.628 25.5029 145.259 25.1365 144.805 25.1365H121.66C121.204 25.1365 120.834 25.5061 120.834 25.962V47.9825C120.834 48.4384 121.204 48.808 121.66 48.808H144.8C145.256 48.808 145.625 48.4384 145.625 47.9825V44.5852C145.625 44.127 145.252 43.7565 144.794 43.7597L127.456 43.8818V39.1475Z" fill="white"/>
<path d="M178.766 47.9825C178.766 48.4384 179.136 48.808 179.592 48.808H184.562C185.018 48.808 185.388 48.4384 185.388 47.9825V25.6525C185.388 25.3675 185.157 25.1365 184.872 25.1365H179.282C178.997 25.1365 178.766 25.3675 178.766 25.6525V47.9825Z" fill="white"/>
<path d="M244.172 25.1365C243.716 25.1365 243.347 25.5061 243.347 25.962V40.7789L227.754 25.3748C227.599 25.2221 227.391 25.1365 227.174 25.1365H221.716C221.26 25.1365 220.891 25.5061 220.891 25.962V47.9825C220.891 48.4384 221.26 48.808 221.716 48.808H226.687C227.143 48.808 227.513 48.4384 227.513 47.9825V33.1336L243.106 48.5692C243.26 48.7222 243.469 48.808 243.686 48.808H249.175C249.631 48.808 250 48.4384 250 47.9825V25.962C250 25.5061 249.631 25.1365 249.175 25.1365H244.172Z" fill="white"/>
</svg>
